<svg width="690" height="690" viewBox="0 0 690 690" fill="none" xmlns="http://www.w3.org/2000/svg">
<path fill-rule="evenodd" clip-rule="evenodd" d="M551.191 39.3594C569.219 39.3597 582.777 48.3087 591.738 57.2041C600.65 66.0503 606.094 75.85 608.375 80.4209L608.384 80.4375L608.391 80.4541C622.373 108.654 629.648 139.767 629.648 171.309C629.648 202.85 622.373 233.964 608.391 262.163L608.387 262.173L608.382 262.184C607.744 263.466 606.88 265.104 605.792 266.984C610.638 279.186 617.867 290.534 631.364 301.2L631.365 301.201C639.211 307.403 640.654 317.043 638.404 324.281C636.078 331.764 628.694 339.551 617.474 338.701C577.975 335.705 551.109 324.089 535.309 303.258H376.124C378.491 315.774 379.694 328.528 379.694 341.353L379.689 342.735C379.606 355.096 378.403 367.383 376.121 379.448C376.211 379.448 376.3 379.446 376.39 379.446H561.413C579.441 379.447 592.999 388.396 601.96 397.291C610.315 405.585 615.623 414.717 618.133 419.592L618.596 420.509L618.605 420.524L618.613 420.541C632.595 448.74 639.87 479.854 639.87 511.396C639.87 542.937 632.595 574.05 618.613 602.25L618.603 602.27C617.677 604.131 616.268 606.768 614.366 609.814C619.182 620.938 626.285 631.398 638.798 641.287C646.644 647.488 648.088 657.129 645.838 664.368C643.511 671.852 636.127 679.639 624.907 678.788C585.407 675.792 558.542 664.176 542.743 643.345H376.39C358.35 643.343 344.788 634.402 335.822 625.501C326.908 616.652 321.47 606.848 319.191 602.271L319.186 602.261L319.181 602.25C305.2 574.052 297.919 542.938 297.919 511.396C297.919 498.571 299.122 485.816 301.49 473.3L301.237 473.302H134.87C119.071 494.133 92.2052 505.749 52.7059 508.745C41.4859 509.596 34.1016 501.809 31.7752 494.325C29.5251 487.086 30.9683 477.445 38.8152 471.244C51.3294 461.354 58.4314 450.893 63.2469 439.767C61.3465 436.721 59.9403 434.086 59.0154 432.228L59.0105 432.218L59.0057 432.207C45.2426 404.45 37.972 373.867 37.7478 342.831L37.743 341.353C37.743 309.809 45.0237 278.692 59.0057 250.493L59.035 250.435C61.3163 245.884 66.762 236.088 75.6736 227.244C84.6344 218.352 98.1894 209.405 116.215 209.403H291.272C288.904 196.889 287.697 184.135 287.697 171.309C287.697 139.765 294.978 108.648 308.96 80.4492L308.989 80.3906C311.27 75.8397 316.717 66.0441 325.629 57.2002C334.589 48.3078 348.144 39.3611 366.169 39.3594H551.191ZM51.1419 493.935L51.0594 493.936C51.0322 493.935 51.0053 493.932 50.9783 493.932C51.0325 493.933 51.087 493.934 51.1419 493.935L51.3152 493.933C51.2571 493.934 51.1993 493.935 51.1419 493.935Z" fill="white"/>
<path d="M406.885 211.462L407.037 211.479H431.124L431.641 211.527C432.146 211.628 432.617 211.878 432.985 212.246C433.477 212.738 433.748 213.408 433.748 214.103V218.758C433.689 219.389 433.404 219.98 432.943 220.418C432.467 220.868 431.839 221.125 431.184 221.137H409.743L409.204 221.088C408.671 220.988 408.169 220.749 407.75 220.396C407.192 219.927 406.81 219.279 406.678 218.562L406.645 218.393L406.596 218.224L405.115 213.688C405.01 213.21 405.085 212.707 405.333 212.284C405.564 211.893 405.932 211.598 406.357 211.445C406.532 211.436 406.71 211.441 406.885 211.462Z" fill="#08B4C4"/>
<path d="M509.313 211.206C509.462 211.236 509.609 211.284 509.748 211.348C510.024 211.475 510.269 211.662 510.461 211.897C510.653 212.133 510.785 212.413 510.854 212.709C510.92 212.997 510.917 213.296 510.854 213.585L509.34 218.284L509.313 218.36L509.291 218.441C509.128 219.081 508.766 219.656 508.256 220.075C507.752 220.488 507.126 220.733 506.476 220.772L485.591 221.132C484.899 221.13 484.235 220.858 483.745 220.369C483.254 219.878 482.978 219.208 482.978 218.513V213.792C482.978 213.096 483.253 212.428 483.745 211.936C484.237 211.444 484.907 211.168 485.602 211.168H508.86L509.313 211.206Z" fill="#08B4C4"/>
<path d="M512.949 115.159C514.116 115.282 515.216 115.803 516.053 116.64C516.888 117.476 517.406 118.573 517.528 119.738L517.556 120.244V185.296C517.555 187.143 516.774 188.85 514.757 190.501C512.654 192.222 509.278 193.811 504.358 195.128C494.528 197.758 479.429 199.098 458.673 199.098C437.732 199.097 422.494 197.78 412.564 195.161C407.591 193.85 404.17 192.266 402.044 190.539C400.008 188.884 399.224 187.165 399.224 185.296V120.261C399.242 118.909 399.782 117.613 400.737 116.656C401.575 115.819 402.674 115.295 403.841 115.165L404.348 115.132H512.448L512.949 115.159Z" fill="#08B4C4"/>
<path d="M491.89 98.8633C492.153 98.8633 492.421 98.9158 492.663 99.0166C492.905 99.118 493.126 99.2704 493.311 99.457C493.495 99.6439 493.642 99.8668 493.741 100.11C493.84 100.355 493.897 100.62 493.894 100.884L493.888 104.738L493.894 104.771C493.897 105.034 493.84 105.295 493.741 105.539C493.642 105.783 493.496 106.01 493.311 106.197C493.126 106.384 492.905 106.537 492.663 106.639C492.421 106.74 492.153 106.791 491.89 106.791H425.042L424.639 106.753C424.244 106.674 423.876 106.48 423.588 106.192C423.204 105.809 422.989 105.281 422.989 104.738V100.655L422.962 100.519C423.042 100.06 423.283 99.6389 423.638 99.3369C423.998 99.0318 424.456 98.8633 424.928 98.8633H491.89Z" fill="#08B4C4"/>
<path fill-rule="evenodd" clip-rule="evenodd" d="M551.192 54.2295C576.718 54.23 591.228 79.3604 595.069 87.0596C608.03 113.199 614.778 142.052 614.778 171.309C614.778 200.565 608.03 229.418 595.069 255.558C593.996 257.714 592.086 261.235 589.333 265.188C594.857 281.901 603.471 298.11 622.145 312.867C626.645 316.424 624.319 324.308 618.599 323.874C577.054 320.723 554.575 307.887 543.238 288.388H372.731C369.242 275.35 364.461 262.654 358.435 250.5L358.427 250.484L358.419 250.468L357.954 249.551C355.445 244.676 350.138 235.545 341.783 227.251C333.713 219.239 321.914 211.185 306.48 209.663C303.888 197.09 302.568 184.239 302.568 171.309C302.568 142.051 309.321 113.195 322.282 87.0547C326.143 79.3531 340.647 54.2319 366.17 54.2295H551.192ZM402.023 90.4688C399.283 90.4989 396.655 91.5665 394.667 93.4521C392.68 95.3379 391.472 97.9045 391.297 100.639V100.683L389.777 132.135C389.777 132.148 389.771 132.165 389.762 132.174C389.752 132.183 389.737 132.189 389.724 132.189H382.166C381.664 132.178 381.162 132.24 380.68 132.375L380.163 132.549C379.659 132.75 379.189 133.029 378.775 133.377L378.377 133.747C378.001 134.139 377.691 134.593 377.457 135.081L377.25 135.582C377.088 136.04 376.998 136.52 376.973 137.003V160.361C376.985 160.859 377.08 161.354 377.261 161.818C377.469 162.349 377.791 162.831 378.187 163.24C378.597 163.678 379.097 164.022 379.656 164.241C380.17 164.442 380.718 164.533 381.268 164.514H389.364L389.392 164.535L389.407 164.573V228.221C389.407 230.92 390.483 233.515 392.392 235.424C394.3 237.33 396.886 238.406 399.583 238.407H401.788V253.15H421.525V238.407H495.407V253.15H515.193V237.41C515.26 237.375 515.339 237.353 515.416 237.351C516.711 237.416 518.004 237.217 519.216 236.752C520.513 236.254 521.686 235.475 522.641 234.465C523.595 233.455 524.308 232.238 524.732 230.915C525.124 229.688 525.247 228.394 525.112 227.115V164.247C525.113 164.235 525.121 164.224 525.129 164.215C525.138 164.206 525.149 164.199 525.161 164.198H535.605C536.173 164.198 536.741 164.087 537.265 163.866C537.788 163.645 538.262 163.315 538.658 162.907C539.054 162.499 539.368 162.012 539.573 161.481C539.768 160.977 539.868 160.437 539.861 159.896V136.475L539.834 136.306C539.724 135.482 539.416 134.706 538.882 134.062C538.358 133.431 537.725 133.05 537.161 132.827C536.672 132.635 536.175 132.541 535.757 132.494L534.82 132.451H526.212V129.064L524.742 100.671L524.736 100.611L524.611 99.5879C524.21 97.238 523.05 95.072 521.296 93.4297C519.542 91.7881 517.303 90.7685 514.932 90.5225L513.907 90.4688H402.023Z" fill="#08B4C4"/>
<path d="M241.397 372.582C242.831 371.956 244.42 371.774 245.959 372.055C247.498 372.336 248.922 373.065 250.042 374.156C251.161 375.248 251.933 376.65 252.253 378.18C252.573 379.711 252.428 381.308 251.839 382.758C251.249 384.207 250.241 385.45 248.943 386.324C247.703 387.158 246.252 387.617 244.762 387.658C244.628 387.634 244.489 387.613 244.353 387.609C242.341 387.56 240.422 386.741 238.995 385.322C237.747 384.08 236.955 382.46 236.736 380.728L236.682 379.981C236.645 378.42 237.067 376.878 237.906 375.561C238.747 374.242 239.964 373.208 241.397 372.582Z" fill="#EA4444"/>
<path d="M171.669 371.994C173.207 371.714 174.793 371.903 176.226 372.528C177.659 373.154 178.875 374.193 179.716 375.512C180.556 376.831 180.985 378.374 180.946 379.938C180.894 381.991 180.042 383.944 178.572 385.377C177.102 386.81 175.127 387.61 173.073 387.609C171.511 387.608 169.981 387.147 168.685 386.275C167.387 385.402 166.378 384.153 165.788 382.704C165.199 381.255 165.055 379.662 165.375 378.131C165.695 376.601 166.462 375.199 167.58 374.107C168.701 373.015 170.129 372.275 171.669 371.994Z" fill="#EA4444"/>
<path d="M212.388 271.989C230.285 272.39 240.929 275.732 247.56 280.184C254.54 284.871 257.436 291.035 259.538 297.394C264.441 312.098 267.011 327.481 267.165 342.98C267.166 343.043 267.172 343.109 267.177 343.171C267.626 348.648 265.991 354.087 262.614 358.416C261.219 359.696 259.59 360.698 257.812 361.351C255.98 362.022 254.032 362.316 252.084 362.216L251.948 362.211H165.467C161.759 362.211 158.054 361.347 155.28 358.765C152.546 356.216 150.255 351.561 150.25 342.98C150.404 327.481 152.98 312.098 157.883 297.394L158.722 295.02C160.798 289.513 163.774 284.285 169.877 280.184C176.943 275.435 188.569 271.951 208.708 271.951L212.388 271.989Z" fill="#EA4444"/>
<path fill-rule="evenodd" clip-rule="evenodd" d="M301.237 224.273C326.765 224.274 341.275 249.406 345.115 257.104C358.076 283.244 364.824 312.096 364.824 341.353C364.824 355.039 363.346 368.636 360.447 381.909C350.153 385.178 341.942 391.246 335.853 397.289C326.941 406.133 321.494 415.928 319.213 420.479L319.198 420.508L319.185 420.537C313.185 432.637 308.42 445.274 304.934 458.252C303.728 458.369 302.496 458.432 301.237 458.432H126.942C115.605 477.931 93.1262 490.766 51.5812 493.918C45.8605 494.352 43.534 486.468 48.0353 482.911C65.7381 468.921 74.3974 453.626 79.9562 437.835C76.1701 432.858 73.6326 428.222 72.3282 425.602C59.3671 399.462 52.6137 370.609 52.6134 341.353C52.6134 312.095 59.3668 283.239 72.3282 257.099C76.1893 249.397 90.693 224.275 116.216 224.273H301.237ZM208.669 260.513C204.061 260.513 194.72 260.512 184.964 262.031C175.296 263.537 164.647 266.614 157.916 273.171L157.889 273.192C154.841 276.241 151.955 281.28 149.346 287.3C146.707 293.39 144.245 300.743 142.132 308.637C137.911 324.408 135.033 342.59 135.032 357.594V357.72C135.032 364.677 135.032 374.311 136.66 382.235C137.478 386.214 138.754 390.037 140.847 392.912C143.019 395.895 146.119 397.894 150.25 397.895H160.306L160.284 397.938L149.629 419.4C149.226 420.213 149.271 421.182 149.749 421.953C150.228 422.723 151.075 423.189 151.982 423.189H170.977C172.224 423.188 173.3 422.31 173.547 421.088L178.218 397.785L178.224 397.741H239.246L243.923 421.082C244.169 422.307 245.243 423.189 246.492 423.189H265.488C266.395 423.189 267.243 422.724 267.721 421.953C268.199 421.181 268.239 420.214 267.835 419.4L257.082 397.779C257.076 397.767 257.067 397.753 257.061 397.741H267.116C271.249 397.741 274.347 395.734 276.52 392.749C278.611 389.874 279.889 386.06 280.706 382.083C282.334 374.16 282.334 364.524 282.334 357.566V357.436C282.334 342.509 279.441 324.365 275.207 308.614C273.088 300.731 270.615 293.386 267.972 287.3C265.357 281.281 262.466 276.241 259.418 273.192C252.907 266.606 242.254 263.533 232.576 262.031C222.786 260.512 213.352 260.513 208.745 260.513H208.669Z" fill="#EA4444"/>
<path fill-rule="evenodd" clip-rule="evenodd" d="M561.413 394.316C586.94 394.317 601.45 419.448 605.291 427.146C618.252 453.286 625 482.139 625 511.396C625 540.652 618.252 569.505 605.291 595.645C603.987 598.266 601.446 602.903 597.657 607.883C603.216 623.672 611.877 638.965 629.578 652.954C634.079 656.511 631.753 664.395 626.032 663.961C584.487 660.81 562.008 647.974 550.672 628.475H376.392C350.827 628.473 336.338 603.349 332.504 595.645C319.543 569.505 312.789 540.653 312.789 511.396C312.789 482.138 319.542 453.282 332.504 427.142C336.365 419.44 350.869 394.318 376.392 394.316H561.413ZM477.796 471.824C474.988 469.814 470.965 469.5 467.196 469.902C465.36 470.099 463.716 470.449 462.535 470.752C461.948 470.903 461.478 471.047 461.163 471.145C461.023 471.188 460.912 471.223 460.837 471.248L460.814 471.253H460.804C451.997 475.229 443.943 480.707 437.006 487.435C433.334 491.039 430.782 495.631 429.661 500.653L427.097 513.307L427.086 513.361C425.543 520.24 425.473 523.93 426.106 526.014C426.391 526.948 426.814 527.54 427.353 527.996C427.926 528.481 428.752 528.906 429.961 529.319C430.681 529.509 431.433 529.551 432.171 529.444C432.898 529.339 433.599 529.086 434.229 528.709C436.346 527.112 437.814 524.808 438.367 522.214L441.655 500.931L442.396 500.294L455.746 488.866L454.342 496.222C453.618 500.009 452.489 503.712 450.977 507.258L450.949 507.323C449.642 510.172 448.962 513.275 448.962 516.41C448.962 519.484 449.615 522.525 450.873 525.328L488.011 581.82L488.049 581.875L488.561 582.697L489.997 584.94C491.382 587.078 492.629 588.886 493.906 590.33C495.533 592.167 497.025 593.183 498.633 593.569C499.01 593.608 499.394 593.615 499.771 593.569L499.885 593.559C502.012 593.386 504.047 592.6 505.743 591.305L505.798 591.262C506.656 590.643 507.384 589.853 507.932 588.947C508.458 588.076 508.807 587.11 508.966 586.105C509.137 582.867 508.19 579.668 506.271 577.051L506.223 576.985L506.185 576.915C506.08 576.753 505.782 576.288 505.324 575.57C500.807 568.494 480.616 536.874 474.552 528.976L474.502 528.905C473.294 527.218 472.502 525.262 472.194 523.21C471.887 521.159 472.074 519.062 472.733 517.096L472.76 517.015L472.798 516.933L472.918 516.605C472.968 516.47 473.032 516.295 473.104 516.094L473.229 515.74C473.486 515.018 473.841 514.01 474.252 512.789C475.076 510.342 476.141 507.028 477.192 503.349C479.322 495.897 481.307 487.246 481.308 481.194V481.01L481.335 480.819C481.578 479.137 481.377 477.418 480.753 475.837C480.133 474.265 479.111 472.884 477.796 471.824ZM443.909 548.811L443.714 549.812C442.669 554.721 440.227 559.23 436.68 562.797C431.318 568.892 426.296 575.284 421.642 581.935L421.636 581.94C420.636 583.36 420.224 585.12 420.498 586.835C420.773 588.549 421.709 590.088 423.101 591.125L423.27 591.256L423.416 591.403C423.465 591.453 423.522 591.501 423.58 591.539L423.765 591.637L424.451 591.909L424.826 592.415C425.918 592.95 427.118 593.24 428.338 593.232H428.414C429.777 593.262 431.13 592.937 432.329 592.29C433.528 591.642 434.541 590.691 435.264 589.535L435.312 589.459L435.373 589.383L450.274 568.911L450.307 568.862L450.351 568.808C454.083 564.18 456.895 558.89 458.675 553.226L460.053 548.849L448.276 530.931L443.909 548.811ZM485.125 493.08C484.322 497.085 483.278 501.152 482.239 504.786C482.208 504.896 482.174 505.009 482.141 505.118C482.112 505.214 482.081 505.311 482.054 505.406C483.819 506.959 485.867 508.164 488.087 508.945L488.223 509C489.383 509.48 497.057 512.531 501.442 514.232L504.371 515.337L504.42 515.354L504.469 515.375C505.085 515.608 505.744 515.723 506.402 515.724C507.706 515.677 508.975 515.257 510.044 514.51C511.117 513.759 511.949 512.708 512.439 511.493L512.473 511.423C512.754 510.78 512.897 510.078 512.897 509.376C512.897 508.678 512.756 507.985 512.478 507.345L512.151 506.697C511.794 506.07 511.341 505.499 510.812 505.004C510.105 504.344 509.271 503.832 508.362 503.501L508.34 503.49L489.094 496.281C487.96 495.835 486.931 495.152 486.083 494.278C485.726 493.91 485.407 493.505 485.125 493.08ZM482.315 430.827C479.397 430.265 476.375 430.581 473.637 431.736C470.898 432.893 468.561 434.838 466.929 437.322C465.501 439.497 464.664 442.002 464.495 444.586L464.463 445.696C464.487 449.653 466.079 453.451 468.889 456.237C471.7 459.023 475.505 460.582 479.462 460.571C482.434 460.571 485.35 459.687 487.819 458.034C490.29 456.379 492.22 454.021 493.352 451.271C494.482 448.523 494.768 445.501 494.179 442.588C493.589 439.674 492.148 436.999 490.036 434.905C487.924 432.813 485.235 431.391 482.315 430.827Z" fill="#FA8E0B"/>
</svg>
