<svg width="420" height="240" viewBox="0 0 420 240" fill="none" xmlns="http://www.w3.org/2000/svg">
<path d="M77.9473 79.6035L77.9844 79.6064H83.7451L83.8682 79.6191C83.989 79.6433 84.1013 79.7028 84.1895 79.791C84.3069 79.9086 84.3719 80.0682 84.3721 80.2344V81.3477C84.358 81.4987 84.29 81.6395 84.1797 81.7441C84.066 81.852 83.9164 81.9141 83.7598 81.917H78.6318L78.502 81.9043C78.3747 81.8804 78.2545 81.8235 78.1543 81.7393C78.0211 81.6269 77.9301 81.4722 77.8984 81.3008L77.8916 81.2598L77.8789 81.2197L77.5244 80.1348C77.4992 80.0204 77.5176 79.9 77.5771 79.7988C77.6324 79.7054 77.7199 79.6361 77.8213 79.5996C77.8633 79.5975 77.9055 79.5985 77.9473 79.6035Z" fill="#08B4C4"/>
<path d="M102.336 79.5322L102.444 79.541C102.48 79.5482 102.515 79.56 102.548 79.5752C102.614 79.6056 102.673 79.6506 102.719 79.707C102.765 79.7635 102.796 79.8305 102.812 79.9014C102.828 79.9702 102.828 80.0414 102.812 80.1104L102.45 81.2344L102.443 81.2529L102.438 81.2725C102.4 81.4254 102.313 81.5619 102.191 81.6621C102.071 81.7611 101.921 81.8198 101.766 81.8291L96.7705 81.916C96.605 81.9155 96.4463 81.8503 96.3291 81.7334C96.2117 81.6159 96.1457 81.4561 96.1455 81.29V80.1592C96.1456 79.9929 96.2115 79.8334 96.3291 79.7158C96.4466 79.5984 96.6063 79.5324 96.7725 79.5322H102.336Z" fill="#08B4C4"/>
<path d="M103.194 56.5654L103.314 56.5713C103.593 56.6006 103.856 56.7258 104.056 56.9258C104.255 57.1257 104.379 57.3874 104.408 57.666L104.416 57.7871V73.3457C104.416 73.7873 104.229 74.1961 103.747 74.5908C103.244 75.0025 102.436 75.3814 101.259 75.6963C98.9082 76.3252 95.2979 76.6455 90.334 76.6455C85.3253 76.6455 81.6805 76.3304 79.3057 75.7041C78.1164 75.3904 77.2995 75.0117 76.791 74.5986C76.3041 74.2029 76.1155 73.7927 76.1152 73.3457V57.791C76.1195 57.4675 76.2499 57.1586 76.4785 56.9297C76.6787 56.7295 76.9407 56.6033 77.2197 56.5723L77.3408 56.5654H103.194Z" fill="#08B4C4"/>
<path d="M98.2783 52.6738C98.3411 52.6739 98.404 52.6868 98.4619 52.7109C98.52 52.7352 98.5729 52.7716 98.6172 52.8164C98.6615 52.8612 98.6971 52.9143 98.7207 52.9727C98.7443 53.0311 98.7566 53.0942 98.7559 53.1572L98.7549 54.0801L98.7559 54.0869C98.7566 54.1499 98.7443 54.2131 98.7207 54.2715C98.6971 54.3299 98.6615 54.3829 98.6172 54.4277C98.5729 54.4725 98.52 54.5089 98.4619 54.5332C98.404 54.5573 98.3411 54.5703 98.2783 54.5703H82.29L82.1943 54.5605C82.1 54.5418 82.0123 54.4956 81.9434 54.4268C81.8516 54.335 81.7999 54.2098 81.7998 54.0801V53.1035L81.7939 53.0703C81.813 52.9606 81.8692 52.8603 81.9541 52.7881C82.0403 52.7149 82.1496 52.6739 82.2627 52.6738H98.2783Z" fill="#08B4C4"/>
<path fill-rule="evenodd" clip-rule="evenodd" d="M112.459 42C118.564 42 122.034 48.0104 122.952 49.8516C126.052 56.1031 127.667 63.003 127.667 70C127.667 76.997 126.052 83.8969 122.952 90.1484C122.035 91.9905 118.569 98 112.459 98H68.2119C62.0972 98 58.6306 91.9905 57.7139 90.1484C54.6142 83.897 53.0001 76.9969 53 70C53 63.0029 54.6141 56.1022 57.7139 49.8506C58.6368 48.0094 62.1068 42 68.2119 42H112.459ZM76.7861 50.667C76.1306 50.674 75.5011 50.9288 75.0254 51.3799C74.55 51.831 74.2624 52.4456 74.2207 53.0996V53.1094L73.8564 60.6318C73.8563 60.635 73.8548 60.6384 73.8525 60.6406C73.8504 60.6426 73.8476 60.6444 73.8447 60.6445H72.0361C71.916 60.6418 71.796 60.6562 71.6807 60.6885L71.5576 60.7305C71.4369 60.7787 71.3247 60.8455 71.2256 60.9287L71.1309 61.0166C71.0407 61.1105 70.9661 61.219 70.9102 61.3359L70.8613 61.4561C70.8227 61.5656 70.7999 61.6796 70.7939 61.7949V67.3311C70.7908 67.4673 70.8137 67.6036 70.8633 67.7305C70.913 67.8573 70.9892 67.9724 71.084 68.0703C71.1822 68.1751 71.3016 68.2581 71.4355 68.3105C71.5586 68.3587 71.6907 68.3796 71.8223 68.375H73.7588L73.7646 68.3799L73.7686 68.3887V83.6113C73.7687 84.2569 74.025 84.8765 74.4814 85.333C74.9379 85.7892 75.5568 86.0458 76.2021 86.0459H76.7295V89.5723H81.4492V86.0459H99.1191V89.5723H103.851V85.8086C103.867 85.8003 103.885 85.7946 103.903 85.7939C104.213 85.8097 104.523 85.7627 104.812 85.6514C105.123 85.5321 105.404 85.3452 105.632 85.1035C105.86 84.862 106.031 84.5722 106.132 84.2559C106.226 83.9624 106.255 83.6526 106.223 83.3467V68.3115C106.223 68.3085 106.223 68.3049 106.226 68.3027C106.228 68.3006 106.231 68.3 106.234 68.2998H108.732C108.869 68.2999 109.004 68.2728 109.13 68.2197C109.255 68.1666 109.368 68.0879 109.463 67.9902C109.558 67.8925 109.632 67.7763 109.681 67.6494C109.727 67.5289 109.751 67.4005 109.75 67.2715V61.6689L109.743 61.6279C109.717 61.4311 109.643 61.2466 109.516 61.0928C109.39 60.9416 109.239 60.8511 109.104 60.7979C108.987 60.7518 108.868 60.729 108.769 60.7178L108.544 60.707H106.486V59.8965L106.134 53.1064L106.133 53.0918L106.104 52.8477C106.008 52.2856 105.73 51.7678 105.311 51.375C104.891 50.9822 104.355 50.7385 103.788 50.6797L103.543 50.667H76.7861Z" fill="#08B4C4"/>
<path fill-rule="evenodd" clip-rule="evenodd" d="M76.7861 50.667C76.1306 50.674 75.5011 50.9288 75.0254 51.3799C74.55 51.831 74.2624 52.4456 74.2207 53.0996V53.1094L73.8564 60.6318C73.8563 60.635 73.8548 60.6384 73.8525 60.6406C73.8504 60.6426 73.8476 60.6444 73.8447 60.6445H72.0361C71.916 60.6418 71.796 60.6562 71.6807 60.6885L71.5576 60.7305C71.4369 60.7787 71.3247 60.8455 71.2256 60.9287L71.1309 61.0166C71.0407 61.1105 70.9661 61.219 70.9102 61.3359L70.8613 61.4561C70.8227 61.5656 70.7999 61.6796 70.7939 61.7949V67.3311C70.7908 67.4673 70.8137 67.6036 70.8633 67.7305C70.913 67.8573 70.9892 67.9724 71.084 68.0703C71.1822 68.1751 71.3016 68.2581 71.4355 68.3105C71.5586 68.3587 71.6907 68.3796 71.8223 68.375H73.7588L73.7646 68.3799L73.7686 68.3887V83.6113C73.7687 84.2569 74.025 84.8765 74.4814 85.333C74.9379 85.7892 75.5568 86.0458 76.2021 86.0459H76.7295V89.5723H81.4492V86.0459H99.1191V89.5723H103.851V85.8086C103.867 85.8003 103.885 85.7946 103.903 85.7939C104.213 85.8097 104.523 85.7627 104.812 85.6514C105.123 85.5321 105.404 85.3452 105.632 85.1035C105.86 84.862 106.031 84.5722 106.132 84.2559C106.226 83.9624 106.255 83.6526 106.223 83.3467V68.3115C106.223 68.3085 106.223 68.3049 106.226 68.3027C106.228 68.3006 106.231 68.3 106.234 68.2998H108.732C108.869 68.2999 109.004 68.2728 109.13 68.2197C109.255 68.1666 109.368 68.0879 109.463 67.9902C109.558 67.8925 109.632 67.7763 109.681 67.6494C109.727 67.5289 109.751 67.4005 109.75 67.2715V61.6689L109.743 61.6279C109.717 61.4311 109.643 61.2466 109.516 61.0928C109.39 60.9416 109.239 60.8511 109.104 60.7979C108.987 60.7518 108.868 60.729 108.769 60.7178L108.544 60.707H106.486V59.8965L106.134 53.1064L106.133 53.0918L106.104 52.8477C106.008 52.2856 105.73 51.7678 105.311 51.375C104.891 50.9822 104.355 50.7385 103.788 50.6797L103.543 50.667H76.7861ZM77.9844 79.6064L77.9473 79.6035C77.9055 79.5985 77.8633 79.5975 77.8213 79.5996C77.7199 79.6361 77.6324 79.7054 77.5771 79.7988C77.5176 79.9 77.4992 80.0204 77.5244 80.1348L77.8789 81.2197L77.8916 81.2598L77.8984 81.3008C77.9301 81.4722 78.0211 81.6269 78.1543 81.7393C78.2545 81.8235 78.3747 81.8804 78.502 81.9043L78.6318 81.917H83.7598C83.9164 81.9141 84.066 81.852 84.1797 81.7441C84.29 81.6395 84.358 81.4987 84.3721 81.3477V80.2344C84.3719 80.0682 84.3069 79.9086 84.1895 79.791C84.1013 79.7028 83.989 79.6433 83.8682 79.6191L83.7451 79.6064H77.9844ZM102.444 79.541L102.336 79.5322H96.7725C96.6063 79.5324 96.4466 79.5984 96.3291 79.7158C96.2115 79.8334 96.1456 79.9929 96.1455 80.1592V81.29C96.1457 81.4561 96.2117 81.6159 96.3291 81.7334C96.4463 81.8503 96.605 81.9155 96.7705 81.916L101.766 81.8291C101.921 81.8198 102.071 81.7611 102.191 81.6621C102.313 81.5619 102.4 81.4254 102.438 81.2725L102.443 81.2529L102.45 81.2344L102.812 80.1104C102.828 80.0414 102.828 79.9702 102.812 79.9014C102.796 79.8305 102.765 79.7635 102.719 79.707C102.673 79.6506 102.614 79.6056 102.548 79.5752C102.515 79.56 102.48 79.5482 102.444 79.541ZM103.314 56.5713L103.194 56.5654H77.3408L77.2197 56.5723C76.9407 56.6033 76.6787 56.7295 76.4785 56.9297C76.2499 57.1586 76.1195 57.4675 76.1152 57.791V73.3457C76.1155 73.7927 76.3041 74.2029 76.791 74.5986C77.2995 75.0117 78.1164 75.3904 79.3057 75.7041C81.6805 76.3304 85.3253 76.6455 90.334 76.6455C95.2979 76.6455 98.9082 76.3252 101.259 75.6963C102.436 75.3814 103.244 75.0025 103.747 74.5908C104.229 74.1961 104.416 73.7873 104.416 73.3457V57.7871L104.408 57.666C104.379 57.3874 104.255 57.1257 104.056 56.9258C103.856 56.7258 103.593 56.6006 103.314 56.5713ZM98.4619 52.7109C98.404 52.6868 98.3411 52.6739 98.2783 52.6738H82.2627C82.1496 52.6739 82.0403 52.7149 81.9541 52.7881C81.8692 52.8603 81.813 52.9606 81.7939 53.0703L81.7998 53.1035V54.0801C81.7999 54.2098 81.8516 54.335 81.9434 54.4268C82.0123 54.4956 82.1 54.5418 82.1943 54.5605L82.29 54.5703H98.2783C98.3411 54.5703 98.404 54.5573 98.4619 54.5332C98.52 54.5089 98.5729 54.4725 98.6172 54.4277C98.6615 54.3829 98.6971 54.3299 98.7207 54.2715C98.7443 54.2131 98.7566 54.1499 98.7559 54.0869L98.7549 54.0801L98.7559 53.1572C98.7566 53.0942 98.7443 53.0311 98.7207 52.9727C98.6971 52.9143 98.6615 52.8612 98.6172 52.8164C98.5729 52.7716 98.52 52.7352 98.4619 52.7109Z" fill="white"/>
<path d="M181.816 77.4678C182.159 77.3182 182.539 77.2746 182.907 77.3418C183.275 77.4091 183.616 77.5845 183.884 77.8457C184.151 78.1068 184.336 78.4417 184.412 78.8076C184.489 79.174 184.453 79.5556 184.312 79.9023C184.171 80.249 183.931 80.5459 183.62 80.7549C183.324 80.9544 182.977 81.0645 182.62 81.0742C182.588 81.0683 182.555 81.0633 182.522 81.0625C182.041 81.0506 181.583 80.8559 181.241 80.5166C180.943 80.2195 180.753 79.8315 180.701 79.417L180.688 79.2383C180.679 78.865 180.781 78.4966 180.981 78.1816C181.183 77.8662 181.474 77.6174 181.816 77.4678Z" fill="#EA4444"/>
<path d="M165.14 77.3281C165.508 77.2611 165.888 77.3064 166.23 77.4561C166.573 77.6057 166.863 77.8536 167.064 78.1689C167.265 78.4845 167.368 78.8535 167.358 79.2275C167.346 79.7184 167.143 80.1855 166.791 80.5283C166.439 80.8711 165.968 81.0626 165.477 81.0625C165.102 81.0623 164.736 80.952 164.426 80.7432C164.115 80.5342 163.874 80.2363 163.733 79.8896C163.592 79.543 163.557 79.1612 163.634 78.7949C163.71 78.429 163.895 78.0941 164.162 77.833C164.43 77.5717 164.771 77.3954 165.14 77.3281Z" fill="#EA4444"/>
<path d="M174.878 53.4121C179.158 53.5079 181.703 54.3065 183.289 55.3711C184.959 56.4922 185.65 57.9667 186.153 59.4873C187.326 63.0039 187.942 66.6819 187.979 70.3887C187.979 70.4014 187.98 70.4146 187.981 70.4274C187.981 70.4298 187.981 70.4322 187.981 70.4346C188.089 71.7443 187.698 73.0448 186.891 74.0801C186.557 74.3863 186.168 74.6272 185.742 74.7832C185.304 74.9438 184.837 75.0142 184.371 74.9902L184.34 74.9883H163.656C162.77 74.9882 161.884 74.7818 161.221 74.1641C160.567 73.5546 160.019 72.441 160.018 70.3887C160.054 66.6819 160.67 63.0039 161.843 59.4873L162.043 58.9199C162.539 57.6027 163.252 56.3521 164.712 55.3711C166.402 54.2356 169.182 53.4023 173.998 53.4023L174.878 53.4121Z" fill="#EA4444"/>
<path fill-rule="evenodd" clip-rule="evenodd" d="M196.126 42C202.231 42 205.701 48.0104 206.619 49.8516C209.719 56.1031 211.334 63.003 211.334 70C211.334 76.997 209.719 83.8969 206.619 90.1484C205.702 91.9905 202.236 98 196.126 98H151.879C145.764 98 142.298 91.9905 141.381 90.1484C138.281 83.897 136.667 76.9969 136.667 70C136.667 63.0029 138.281 56.1022 141.381 49.8506C142.304 48.0094 145.774 42 151.879 42H196.126ZM173.995 50.666C172.895 50.666 170.657 50.6663 168.319 51.0303C166.007 51.3903 163.46 52.1252 161.851 53.6934L161.845 53.6982C161.116 54.4272 160.426 55.6323 159.802 57.0723C159.171 58.5288 158.582 60.2877 158.076 62.1758C157.067 65.9478 156.378 70.2964 156.378 73.8848V73.9092V73.9104C156.378 75.5745 156.378 77.8807 156.768 79.7773C156.963 80.7288 157.268 81.6424 157.769 82.3301C158.288 83.0438 159.029 83.5225 160.018 83.5225H162.422L162.417 83.5322L159.869 88.665C159.773 88.8595 159.783 89.0909 159.897 89.2754C160.012 89.4599 160.215 89.5722 160.432 89.5723H164.974C165.272 89.5723 165.53 89.3613 165.589 89.0684L166.707 83.4951L166.708 83.4854H181.302L182.419 89.0674C182.478 89.3605 182.735 89.5722 183.034 89.5723H187.578C187.795 89.572 187.997 89.4597 188.111 89.2754C188.226 89.0908 188.235 88.8594 188.139 88.665L185.566 83.4941C185.565 83.4913 185.563 83.4882 185.562 83.4854H187.966C188.954 83.4854 189.695 83.0059 190.215 82.292C190.715 81.6043 191.021 80.6916 191.217 79.7402C191.607 77.8434 191.606 75.5363 191.606 73.8721V73.8467C191.606 70.2766 190.914 65.9369 189.901 62.1699C189.394 60.2845 188.803 58.528 188.171 57.0723C187.546 55.6328 186.854 54.4271 186.125 53.6982C184.568 52.1233 182.02 51.3894 179.706 51.0303C177.36 50.6663 175.099 50.666 174 50.666H173.995Z" fill="#EA4444"/>
<path fill-rule="evenodd" clip-rule="evenodd" d="M173.995 50.666C172.895 50.666 170.657 50.6663 168.319 51.0303C166.007 51.3903 163.46 52.1252 161.851 53.6934L161.845 53.6982C161.116 54.4272 160.426 55.6323 159.802 57.0723C159.171 58.5288 158.582 60.2877 158.076 62.1758C157.067 65.9478 156.378 70.2964 156.378 73.8848V73.9092V73.9104C156.378 75.5745 156.378 77.8807 156.768 79.7773C156.963 80.7288 157.268 81.6424 157.769 82.3301C158.288 83.0438 159.029 83.5225 160.018 83.5225H162.422L162.417 83.5322L159.869 88.665C159.773 88.8595 159.783 89.0909 159.897 89.2754C160.012 89.4599 160.215 89.5722 160.432 89.5723H164.974C165.272 89.5723 165.53 89.3613 165.589 89.0684L166.707 83.4951L166.708 83.4854H181.302L182.419 89.0674C182.478 89.3605 182.735 89.5722 183.034 89.5723H187.578C187.795 89.572 187.997 89.4597 188.111 89.2754C188.226 89.0908 188.235 88.8594 188.139 88.665L185.566 83.4941C185.565 83.4913 185.563 83.4882 185.562 83.4854H187.966C188.954 83.4854 189.695 83.0059 190.215 82.292C190.715 81.6043 191.021 80.6916 191.217 79.7402C191.607 77.8434 191.606 75.5363 191.606 73.8721V73.8467C191.606 70.2766 190.914 65.9369 189.901 62.1699C189.394 60.2845 188.803 58.528 188.171 57.0723C187.546 55.6328 186.854 54.4271 186.125 53.6982C184.568 52.1233 182.02 51.3894 179.706 51.0303C177.36 50.6663 175.099 50.666 174 50.666H173.995ZM182.907 77.3418C182.539 77.2746 182.159 77.3182 181.816 77.4678C181.474 77.6174 181.183 77.8662 180.981 78.1816C180.781 78.4966 180.679 78.865 180.688 79.2383L180.701 79.417C180.753 79.8315 180.943 80.2195 181.241 80.5166C181.583 80.8559 182.041 81.0506 182.522 81.0625C182.555 81.0633 182.588 81.0683 182.62 81.0742C182.977 81.0645 183.324 80.9544 183.62 80.7549C183.931 80.5459 184.171 80.249 184.312 79.9023C184.453 79.5556 184.489 79.174 184.412 78.8076C184.336 78.4417 184.151 78.1068 183.884 77.8457C183.616 77.5845 183.275 77.4091 182.907 77.3418ZM166.23 77.4561C165.888 77.3064 165.508 77.2611 165.14 77.3281C164.771 77.3954 164.43 77.5717 164.162 77.833C163.895 78.0941 163.71 78.429 163.634 78.7949C163.557 79.1612 163.592 79.543 163.733 79.8896C163.874 80.2363 164.115 80.5342 164.426 80.7432C164.736 80.952 165.102 81.0623 165.477 81.0625C165.968 81.0626 166.439 80.8711 166.791 80.5283C167.143 80.1855 167.346 79.7184 167.358 79.2275C167.368 78.8535 167.265 78.4845 167.064 78.1689C166.863 77.8536 166.573 77.6057 166.23 77.4561ZM183.289 55.3711C181.703 54.3065 179.158 53.5079 174.878 53.4121L173.998 53.4023C169.182 53.4023 166.402 54.2356 164.712 55.3711C163.252 56.3521 162.539 57.6027 162.043 58.9199L161.843 59.4873C160.67 63.0039 160.054 66.6819 160.018 70.3887C160.019 72.441 160.567 73.5546 161.221 74.1641C161.884 74.7818 162.77 74.9882 163.656 74.9883H184.34L184.371 74.9902C184.837 75.0142 185.304 74.9438 185.742 74.7832C186.168 74.6272 186.557 74.3863 186.891 74.0801C187.698 73.0448 188.089 71.7443 187.981 70.4346L187.981 70.4274C187.98 70.4146 187.979 70.4014 187.979 70.3887C187.942 66.6819 187.326 63.0039 186.153 59.4873C185.65 57.9667 184.959 56.4922 183.289 55.3711Z" fill="white"/>
<path fill-rule="evenodd" clip-rule="evenodd" d="M279.793 42C285.898 42 289.368 48.0104 290.286 49.8516C293.386 56.1031 295.001 63.003 295.001 70C295.001 76.997 293.386 83.8969 290.286 90.1484C289.369 91.9905 285.903 98 279.793 98H235.546C229.431 98 225.965 91.9905 225.048 90.1484C221.948 83.897 220.334 76.9969 220.334 70C220.334 63.0029 221.948 56.1022 225.048 49.8506C225.971 48.0094 229.441 42 235.546 42H279.793ZM259.797 60.5361C259.125 60.0551 258.162 59.9798 257.261 60.0762C256.822 60.1231 256.429 60.2078 256.146 60.2803C256.006 60.3162 255.894 60.3498 255.818 60.373C255.79 60.382 255.766 60.3899 255.748 60.3958C255.745 60.3967 255.743 60.3976 255.74 60.3984L255.734 60.4004H255.732C253.626 61.3514 251.7 62.6607 250.041 64.2695C249.163 65.1317 248.552 66.2304 248.284 67.4316L247.672 70.457L247.669 70.4697C247.3 72.1152 247.282 72.9977 247.434 73.4961C247.502 73.7195 247.604 73.8608 247.732 73.9697C247.87 74.0856 248.066 74.1874 248.355 74.2861C248.528 74.3316 248.708 74.3419 248.885 74.3164C249.059 74.2912 249.225 74.2307 249.376 74.1406C249.882 73.7589 250.234 73.2081 250.366 72.5879L251.153 67.498L251.33 67.3457L254.522 64.6123L254.187 66.3711C254.013 67.2767 253.744 68.1618 253.382 69.0098L253.375 69.0264C253.063 69.7076 252.9 70.4497 252.9 71.1992C252.901 71.9343 253.057 72.6607 253.357 73.3311L262.239 86.8428L262.248 86.8545L262.37 87.0518L262.715 87.5889C263.046 88.1001 263.343 88.5317 263.648 88.877C264.038 89.3167 264.394 89.5609 264.779 89.6533C264.87 89.6625 264.962 89.6624 265.052 89.6514L265.079 89.6494C265.588 89.6081 266.074 89.4211 266.479 89.1113L266.493 89.1006C266.698 88.9526 266.872 88.7643 267.003 88.5479C267.129 88.3393 267.213 88.1077 267.251 87.8672C267.292 87.0926 267.064 86.3271 266.605 85.7012L266.595 85.6855L266.585 85.6699C266.56 85.6314 266.489 85.5197 266.379 85.3477L266.376 85.3433C265.29 83.6422 260.47 76.0913 259.021 74.2041L259.009 74.1865C258.72 73.783 258.531 73.316 258.457 72.8252C258.384 72.3346 258.428 71.8336 258.586 71.3633L258.592 71.3438L258.601 71.3242L258.63 71.2451C258.642 71.2128 258.656 71.172 258.673 71.124C258.682 71.0981 258.692 71.0701 258.703 71.04C258.765 70.8673 258.85 70.6263 258.948 70.334C259.145 69.7487 259.4 68.9553 259.651 68.0752C260.161 66.2931 260.636 64.2246 260.636 62.7773V62.7324L260.643 62.6875C260.701 62.2853 260.653 61.8741 260.504 61.4961C260.356 61.1203 260.111 60.7897 259.797 60.5361ZM251.691 78.9482L251.645 79.1875C251.395 80.3617 250.81 81.4398 249.962 82.293C248.68 83.7505 247.479 85.2787 246.366 86.8691L246.365 86.8711C246.126 87.2106 246.027 87.6309 246.093 88.041C246.158 88.4512 246.383 88.8203 246.716 89.0684L246.756 89.0986L246.79 89.1348C246.802 89.1466 246.815 89.1569 246.829 89.166L246.874 89.1895L247.038 89.2549L247.129 89.376C247.39 89.5039 247.676 89.5741 247.968 89.5723H247.986C248.312 89.5793 248.636 89.5016 248.923 89.3467C249.21 89.1917 249.451 88.9639 249.624 88.6875L249.636 88.6689L249.649 88.6504L253.214 83.7549L253.223 83.7432L253.232 83.7305C254.125 82.6236 254.798 81.3585 255.224 80.0039L255.552 78.957L252.735 74.6719L251.691 78.9482ZM261.549 65.6201C261.357 66.5777 261.108 67.5499 260.859 68.4189C260.852 68.4453 260.844 68.4719 260.836 68.498C260.829 68.5213 260.821 68.5442 260.814 68.5674C261.237 68.939 261.727 69.2271 262.258 69.4141L262.289 69.4268C262.565 69.5411 264.402 70.2707 265.451 70.6777L266.151 70.9424L266.163 70.9463L266.175 70.9512C266.322 71.0071 266.48 71.0351 266.638 71.0352C266.95 71.024 267.252 70.923 267.508 70.7441C267.764 70.5645 267.964 70.3139 268.081 70.0234L268.089 70.0068C268.156 69.8531 268.19 69.6855 268.19 69.5176C268.19 69.3505 268.157 69.1845 268.09 69.0312L268.012 68.876C267.926 68.7259 267.818 68.5891 267.691 68.4707C267.522 68.3129 267.323 68.1905 267.105 68.1113L267.101 68.1094L262.498 66.3857C262.227 66.2791 261.981 66.1162 261.778 65.9072C261.693 65.8189 261.616 65.7219 261.549 65.6201ZM260.877 50.7314C260.179 50.5969 259.456 50.6729 258.801 50.9492C258.146 51.2258 257.588 51.6911 257.197 52.2852C256.856 52.8053 256.656 53.4046 256.615 54.0225L256.607 54.2881C256.613 55.2345 256.994 56.1422 257.666 56.8086C258.338 57.4747 259.248 57.8473 260.194 57.8447C260.905 57.8447 261.603 57.6336 262.193 57.2383C262.784 56.8425 263.246 56.2787 263.517 55.6211C263.787 54.9638 263.856 54.2406 263.715 53.5439C263.574 52.8471 263.228 52.2076 262.724 51.707C262.219 51.2066 261.575 50.8663 260.877 50.7314Z" fill="#FA8E0B"/>
<path d="M260.877 50.7314C260.179 50.5969 259.456 50.6729 258.801 50.9492C258.146 51.2258 257.588 51.6911 257.197 52.2852C256.856 52.8053 256.656 53.4046 256.615 54.0225L256.607 54.2881C256.613 55.2345 256.994 56.1422 257.666 56.8086C258.338 57.4747 259.248 57.8473 260.194 57.8447C260.905 57.8447 261.603 57.6336 262.193 57.2383C262.784 56.8425 263.246 56.2787 263.517 55.6211C263.787 54.9638 263.856 54.2406 263.715 53.5439C263.574 52.8471 263.228 52.2076 262.724 51.707C262.219 51.2066 261.575 50.8663 260.877 50.7314Z" fill="white"/>
<path d="M259.797 60.5361C259.125 60.0551 258.162 59.9798 257.261 60.0762C256.822 60.1231 256.429 60.2078 256.146 60.2803C256.006 60.3162 255.894 60.3498 255.818 60.373C255.79 60.382 255.766 60.3899 255.748 60.3958L255.74 60.3984L255.734 60.4004H255.732C253.626 61.3514 251.7 62.6607 250.041 64.2695C249.163 65.1317 248.552 66.2304 248.284 67.4316L247.672 70.457L247.669 70.4697C247.3 72.1152 247.282 72.9977 247.434 73.4961C247.502 73.7195 247.604 73.8608 247.732 73.9697C247.87 74.0856 248.066 74.1874 248.355 74.2861C248.528 74.3316 248.708 74.3419 248.885 74.3164C249.059 74.2912 249.225 74.2307 249.376 74.1406C249.882 73.7589 250.234 73.2081 250.366 72.5879L251.153 67.498L251.33 67.3457L254.522 64.6123L254.187 66.3711C254.013 67.2767 253.744 68.1618 253.382 69.0098L253.375 69.0264C253.063 69.7076 252.9 70.4497 252.9 71.1992C252.901 71.9343 253.057 72.6607 253.357 73.3311L262.239 86.8428L262.248 86.8545L262.37 87.0518L262.715 87.5889C263.046 88.1001 263.343 88.5317 263.648 88.877C264.038 89.3167 264.394 89.5609 264.779 89.6533C264.87 89.6625 264.962 89.6624 265.052 89.6514L265.079 89.6494C265.588 89.6081 266.074 89.4211 266.479 89.1113L266.493 89.1006C266.698 88.9526 266.872 88.7643 267.003 88.5479C267.129 88.3393 267.213 88.1077 267.251 87.8672C267.292 87.0926 267.064 86.3271 266.605 85.7012L266.595 85.6855L266.585 85.6699C266.56 85.6314 266.489 85.5197 266.379 85.3477L266.376 85.3433C265.29 83.6422 260.47 76.0913 259.021 74.2041L259.009 74.1865C258.72 73.783 258.531 73.316 258.457 72.8252C258.384 72.3346 258.428 71.8336 258.586 71.3633L258.592 71.3438L258.601 71.3242L258.63 71.2451C258.642 71.2128 258.656 71.172 258.673 71.124C258.682 71.0981 258.692 71.0701 258.703 71.04C258.765 70.8673 258.85 70.6263 258.948 70.334C259.145 69.7487 259.4 68.9553 259.651 68.0752C260.161 66.2931 260.636 64.2246 260.636 62.7773V62.7324L260.643 62.6875C260.701 62.2853 260.653 61.8741 260.504 61.4961C260.356 61.1203 260.111 60.7897 259.797 60.5361Z" fill="white"/>
<path d="M261.549 65.6201C261.357 66.5777 261.108 67.5499 260.859 68.4189C260.852 68.4453 260.844 68.4719 260.836 68.498C260.829 68.5213 260.821 68.5442 260.814 68.5674C261.237 68.939 261.727 69.2271 262.258 69.4141L262.289 69.4268C262.565 69.5411 264.402 70.2707 265.451 70.6777L266.151 70.9424L266.163 70.9463L266.175 70.9512C266.322 71.0071 266.48 71.0351 266.638 71.0352C266.95 71.024 267.252 70.923 267.508 70.7441C267.764 70.5645 267.964 70.3139 268.081 70.0234L268.089 70.0068C268.156 69.8531 268.19 69.6855 268.19 69.5176C268.19 69.3505 268.157 69.1845 268.09 69.0312L268.012 68.876C267.926 68.7259 267.818 68.5891 267.691 68.4707C267.522 68.3129 267.323 68.1905 267.105 68.1113L267.101 68.1094L262.498 66.3857C262.227 66.2791 261.981 66.1162 261.778 65.9072C261.693 65.8189 261.616 65.7219 261.549 65.6201Z" fill="white"/>
<path d="M251.691 78.9482L251.645 79.1875C251.395 80.3617 250.81 81.4398 249.962 82.293C248.68 83.7505 247.479 85.2787 246.366 86.8691L246.365 86.8711C246.126 87.2106 246.027 87.6309 246.093 88.041C246.158 88.4512 246.383 88.8203 246.716 89.0684L246.756 89.0986L246.79 89.1348C246.802 89.1466 246.815 89.1569 246.829 89.166L246.874 89.1895L247.038 89.2549L247.129 89.376C247.39 89.5039 247.676 89.5741 247.968 89.5723H247.986C248.312 89.5793 248.636 89.5016 248.923 89.3467C249.21 89.1917 249.451 88.9639 249.624 88.6875L249.636 88.6689L249.649 88.6504L253.214 83.7549L253.223 83.7432L253.232 83.7305C254.125 82.6236 254.798 81.3585 255.224 80.0039L255.552 78.957L252.735 74.6719L251.691 78.9482Z" fill="white"/>
<path d="M56.648 150V116.4H63.512L79.928 138.96V116.4H86.456V150H79.928L63.224 127.008V150H56.648Z" fill="#24292D"/>
<path d="M106.925 150.672C104.141 150.672 101.725 150.128 99.677 149.04C97.629 147.952 96.045 146.432 94.925 144.48C93.837 142.496 93.293 140.16 93.293 137.472V116.4H99.869V137.472C99.869 138.912 100.157 140.176 100.733 141.264C101.341 142.32 102.173 143.136 103.229 143.712C104.317 144.288 105.581 144.576 107.021 144.576C108.461 144.576 109.709 144.288 110.765 143.712C111.853 143.136 112.685 142.32 113.261 141.264C113.869 140.176 114.173 138.912 114.173 137.472V116.4H120.749V137.472C120.749 140.16 120.173 142.496 119.021 144.48C117.901 146.432 116.301 147.952 114.221 149.04C112.173 150.128 109.741 150.672 106.925 150.672Z" fill="#24292D"/>
<path d="M138.85 150.576C137.154 150.576 135.57 150.368 134.098 149.952C132.626 149.536 131.314 148.96 130.162 148.224C129.01 147.456 128.05 146.608 127.282 145.68C126.546 144.752 126.066 143.776 125.842 142.752L132.274 140.832C132.69 141.92 133.426 142.864 134.482 143.664C135.538 144.432 136.866 144.832 138.466 144.864C140.162 144.896 141.538 144.528 142.594 143.76C143.682 142.992 144.226 142 144.226 140.784C144.226 139.728 143.794 138.848 142.93 138.144C142.098 137.408 140.946 136.848 139.474 136.464L135.106 135.312C133.474 134.896 132.034 134.272 130.786 133.44C129.538 132.576 128.562 131.52 127.858 130.272C127.154 129.024 126.802 127.568 126.802 125.904C126.802 122.736 127.842 120.272 129.922 118.512C132.034 116.72 135.01 115.824 138.85 115.824C140.994 115.824 142.866 116.144 144.466 116.784C146.098 117.392 147.458 118.272 148.546 119.424C149.634 120.576 150.466 121.936 151.042 123.504L144.658 125.472C144.274 124.384 143.57 123.456 142.546 122.688C141.522 121.92 140.226 121.536 138.658 121.536C137.058 121.536 135.794 121.904 134.866 122.64C133.97 123.376 133.522 124.416 133.522 125.76C133.522 126.816 133.874 127.648 134.578 128.256C135.314 128.864 136.306 129.328 137.554 129.648L141.97 130.752C144.85 131.456 147.09 132.72 148.69 134.544C150.29 136.368 151.09 138.4 151.09 140.64C151.09 142.624 150.61 144.368 149.65 145.872C148.69 147.344 147.298 148.496 145.474 149.328C143.65 150.16 141.442 150.576 138.85 150.576Z" fill="#24292D"/>
<path d="M168.164 150V116.4H179.54C181.844 116.4 183.86 116.752 185.588 117.456C187.316 118.16 188.66 119.232 189.62 120.672C190.58 122.08 191.06 123.84 191.06 125.952C191.06 127.264 190.724 128.48 190.052 129.6C189.412 130.688 188.5 131.632 187.316 132.432C188.884 133.232 190.084 134.304 190.916 135.648C191.78 136.96 192.212 138.544 192.212 140.4C192.212 142.448 191.748 144.192 190.82 145.632C189.892 147.072 188.596 148.16 186.932 148.896C185.268 149.632 183.316 150 181.076 150H168.164ZM174.596 144.192H180.452C182.02 144.192 183.252 143.808 184.148 143.04C185.044 142.24 185.492 141.184 185.492 139.872C185.492 138.496 184.996 137.424 184.004 136.656C183.012 135.856 181.652 135.456 179.924 135.456H174.596V144.192ZM174.596 130.08H179.684C181.124 130.08 182.26 129.712 183.092 128.976C183.924 128.24 184.34 127.2 184.34 125.856C184.34 124.512 183.876 123.472 182.948 122.736C182.02 122 180.756 121.632 179.156 121.632H174.596V130.08Z" fill="#24292D"/>
<path d="M212.482 150L212.098 145.584V126H218.434V150H212.482ZM196.21 138.288V126H202.546V138.288H196.21ZM202.546 138.288C202.546 139.888 202.722 141.152 203.074 142.08C203.458 142.976 203.986 143.632 204.658 144.048C205.362 144.432 206.146 144.624 207.01 144.624C208.674 144.656 209.938 144.16 210.802 143.136C211.666 142.08 212.098 140.56 212.098 138.576H214.258C214.258 141.136 213.874 143.312 213.106 145.104C212.338 146.864 211.282 148.224 209.938 149.184C208.594 150.112 207.01 150.576 205.186 150.576C203.266 150.576 201.634 150.192 200.29 149.424C198.946 148.656 197.922 147.472 197.218 145.872C196.546 144.24 196.21 142.144 196.21 139.584V138.288H202.546Z" fill="#24292D"/>
<path d="M232.899 150.576C231.363 150.576 229.923 150.352 228.579 149.904C227.236 149.424 226.051 148.752 225.027 147.888C224.003 146.992 223.203 145.904 222.627 144.624L228.051 142.128C228.531 142.896 229.187 143.568 230.019 144.144C230.851 144.688 231.811 144.96 232.899 144.96C233.955 144.96 234.771 144.816 235.347 144.528C235.923 144.208 236.211 143.76 236.211 143.184C236.211 142.608 235.971 142.192 235.491 141.936C235.043 141.648 234.419 141.408 233.619 141.216L231.411 140.64C229.107 140.032 227.283 139.072 225.939 137.76C224.628 136.416 223.971 134.88 223.971 133.152C223.971 130.688 224.755 128.784 226.323 127.44C227.923 126.096 230.179 125.424 233.091 125.424C234.595 125.424 235.987 125.648 237.267 126.096C238.579 126.544 239.699 127.168 240.627 127.968C241.555 128.768 242.195 129.696 242.547 130.752L237.315 133.152C237.091 132.512 236.547 132 235.683 131.616C234.819 131.2 233.955 130.992 233.091 130.992C232.227 130.992 231.555 131.184 231.075 131.568C230.627 131.92 230.403 132.416 230.403 133.056C230.403 133.472 230.627 133.824 231.075 134.112C231.523 134.368 232.163 134.592 232.995 134.784L236.115 135.552C237.683 135.936 238.932 136.56 239.859 137.424C240.82 138.256 241.507 139.2 241.923 140.256C242.371 141.28 242.595 142.288 242.595 143.28C242.595 144.72 242.163 146 241.299 147.12C240.467 148.208 239.315 149.056 237.843 149.664C236.403 150.272 234.755 150.576 232.899 150.576Z" fill="#24292D"/>
<path d="M244.939 155.472L247.867 144.144H254.443L249.739 155.472H244.939Z" fill="#24292D"/>
<path d="M270.96 150V116.4H278.112L287.904 130.896L297.696 116.4H304.8V150H298.272V126.672L287.904 141.936L277.536 126.72V150H270.96Z" fill="#24292D"/>
<path d="M312.117 150V116.4H324.597C326.965 116.4 329.061 116.864 330.885 117.792C332.709 118.72 334.133 120 335.157 121.632C336.181 123.232 336.693 125.104 336.693 127.248C336.693 129.36 336.149 131.248 335.061 132.912C334.005 134.544 332.549 135.824 330.693 136.752C328.837 137.648 326.725 138.096 324.357 138.096H318.693V150H312.117ZM330.597 150L322.821 136.512L327.861 132.912L338.037 150H330.597ZM318.693 132.096H324.645C325.637 132.096 326.517 131.888 327.285 131.472C328.085 131.056 328.709 130.48 329.157 129.744C329.637 129.008 329.877 128.176 329.877 127.248C329.877 125.808 329.349 124.64 328.293 123.744C327.269 122.848 325.941 122.4 324.309 122.4H318.693V132.096Z" fill="#24292D"/>
<path d="M349.596 150V122.4H339.516V116.4H366.204V122.4H356.172V150H349.596Z" fill="#24292D"/>
<path d="M65.192 198.624C63.208 198.624 61.448 198.24 59.912 197.472C58.376 196.704 57.176 195.648 56.312 194.304C55.448 192.96 55.016 191.408 55.016 189.648C55.016 188.432 55.24 187.312 55.688 186.288C56.136 185.264 56.76 184.32 57.56 183.456C58.36 182.56 59.256 181.776 60.248 181.104L66.584 176.736C67.096 176.384 67.64 175.984 68.216 175.536C68.824 175.088 69.352 174.56 69.8 173.952C70.28 173.312 70.52 172.592 70.52 171.792C70.52 170.864 70.184 170.144 69.512 169.632C68.84 169.088 67.992 168.816 66.968 168.816C66.008 168.816 65.192 169.088 64.52 169.632C63.88 170.176 63.56 170.88 63.56 171.744C63.56 172.576 63.816 173.312 64.328 173.952C64.84 174.56 65.432 175.28 66.104 176.112L72.488 183.792L84.248 198H76.856L67.928 187.344L61.208 179.184C60.344 178.064 59.624 177.088 59.048 176.256C58.504 175.392 58.104 174.608 57.848 173.904C57.592 173.168 57.464 172.432 57.464 171.696C57.464 170.16 57.864 168.8 58.664 167.616C59.496 166.432 60.6 165.504 61.976 164.832C63.384 164.128 64.952 163.776 66.68 163.776C68.568 163.776 70.248 164.128 71.72 164.832C73.192 165.504 74.344 166.448 75.176 167.664C76.04 168.88 76.472 170.304 76.472 171.936C76.472 173.248 76.136 174.464 75.464 175.584C74.792 176.672 73.8 177.776 72.488 178.896C71.208 180.016 69.64 181.216 67.784 182.496L64.376 184.848C63.864 185.2 63.384 185.6 62.936 186.048C62.52 186.496 62.184 187.008 61.928 187.584C61.672 188.128 61.544 188.768 61.544 189.504C61.544 190.592 61.912 191.488 62.648 192.192C63.416 192.896 64.392 193.248 65.576 193.248C66.92 193.248 68.248 193.04 69.56 192.624C70.872 192.208 72.056 191.584 73.112 190.752C74.2 189.92 75.048 188.896 75.656 187.68C76.264 186.464 76.568 185.072 76.568 183.504H82.472C82.472 186.448 81.736 189.072 80.264 191.376C78.792 193.648 76.76 195.424 74.168 196.704C71.576 197.984 68.584 198.624 65.192 198.624Z" fill="#24292D"/>
<path d="M126.092 198L135.74 164.4H142.412L132.38 198H126.092ZM105.836 198L95.8996 164.4H102.572L112.124 198H105.836ZM106.7 198L115.868 164.4H121.82L112.7 198H106.7ZM125.468 198L116.444 164.4H122.396L131.756 198H125.468Z" fill="#24292D"/>
<path d="M158.029 198L157.837 193.152V185.856C157.837 184.416 157.677 183.184 157.357 182.16C157.069 181.136 156.589 180.352 155.917 179.808C155.277 179.232 154.397 178.944 153.277 178.944C152.253 178.944 151.325 179.168 150.493 179.616C149.661 180.064 148.957 180.752 148.381 181.68L142.813 179.76C143.261 178.736 143.917 177.744 144.781 176.784C145.645 175.792 146.765 174.992 148.141 174.384C149.549 173.744 151.261 173.424 153.277 173.424C155.709 173.424 157.725 173.888 159.325 174.816C160.957 175.744 162.157 177.056 162.925 178.752C163.725 180.416 164.109 182.4 164.077 184.704L163.933 198H158.029ZM151.309 198.576C148.429 198.576 146.189 197.936 144.589 196.656C143.021 195.376 142.237 193.568 142.237 191.232C142.237 188.672 143.085 186.752 144.781 185.472C146.509 184.16 148.925 183.504 152.029 183.504H158.125V188.208H154.237C152.157 188.208 150.717 188.464 149.917 188.976C149.117 189.456 148.717 190.144 148.717 191.04C148.717 191.744 149.037 192.304 149.677 192.72C150.317 193.104 151.213 193.296 152.365 193.296C153.421 193.296 154.349 193.056 155.149 192.576C155.981 192.064 156.637 191.424 157.117 190.656C157.597 189.856 157.837 189.04 157.837 188.208H159.373C159.373 191.472 158.749 194.016 157.501 195.84C156.285 197.664 154.221 198.576 151.309 198.576Z" fill="#24292D"/>
<path d="M169.127 198V164.4H175.463V198H169.127Z" fill="#24292D"/>
<path d="M186.987 191.904L183.195 187.536L195.483 174H203.019L186.987 191.904ZM180.939 198V164.4H187.275V198H180.939ZM196.299 198L188.331 186.384L192.459 182.016L203.739 198H196.299Z" fill="#24292D"/>
<path d="M233.949 198.576C230.685 198.576 227.789 197.84 225.261 196.368C222.733 194.864 220.749 192.816 219.309 190.224C217.869 187.6 217.149 184.592 217.149 181.2C217.149 177.808 217.869 174.816 219.309 172.224C220.749 169.6 222.717 167.552 225.213 166.08C227.741 164.576 230.637 163.824 233.901 163.824C236.205 163.824 238.349 164.24 240.333 165.072C242.317 165.872 244.045 167.008 245.517 168.48C247.021 169.92 248.173 171.584 248.973 173.472L242.877 175.728C242.333 174.544 241.613 173.52 240.717 172.656C239.821 171.76 238.797 171.072 237.645 170.592C236.493 170.08 235.245 169.824 233.901 169.824C231.949 169.824 230.205 170.32 228.669 171.312C227.165 172.272 225.981 173.6 225.117 175.296C224.285 176.992 223.869 178.96 223.869 181.2C223.869 183.44 224.301 185.424 225.165 187.152C226.029 188.848 227.229 190.192 228.765 191.184C230.301 192.144 232.061 192.624 234.045 192.624C235.421 192.624 236.669 192.368 237.789 191.856C238.941 191.312 239.949 190.576 240.813 189.648C241.709 188.72 242.429 187.648 242.973 186.432L249.069 188.64C248.269 190.592 247.117 192.32 245.613 193.824C244.141 195.328 242.413 196.496 240.429 197.328C238.445 198.16 236.285 198.576 233.949 198.576Z" fill="#24292D"/>
<path d="M252.986 198V164.4H259.322V198H252.986Z" fill="#24292D"/>
<path d="M280.638 198L280.254 193.584V174H286.59V198H280.638ZM264.366 186.288V174H270.702V186.288H264.366ZM270.702 186.288C270.702 187.888 270.878 189.152 271.23 190.08C271.615 190.976 272.143 191.632 272.814 192.048C273.518 192.432 274.302 192.624 275.166 192.624C276.83 192.656 278.094 192.16 278.958 191.136C279.822 190.08 280.254 188.56 280.254 186.576H282.414C282.414 189.136 282.031 191.312 281.262 193.104C280.494 194.864 279.438 196.224 278.094 197.184C276.751 198.112 275.167 198.576 273.342 198.576C271.423 198.576 269.79 198.192 268.446 197.424C267.102 196.656 266.078 195.472 265.374 193.872C264.702 192.24 264.366 190.144 264.366 187.584V186.288H270.702Z" fill="#24292D"/>
<path d="M292.08 198V164.4H298.416V193.536L298.08 198H292.08ZM305.664 198.576C303.648 198.576 301.936 198.064 300.528 197.04C299.152 196.016 298.096 194.56 297.36 192.672C296.624 190.784 296.256 188.56 296.256 186C296.256 183.408 296.624 181.184 297.36 179.328C298.096 177.44 299.152 175.984 300.528 174.96C301.936 173.936 303.648 173.424 305.664 173.424C307.872 173.424 309.776 173.936 311.376 174.96C313.008 175.984 314.272 177.44 315.168 179.328C316.064 181.184 316.512 183.408 316.512 186C316.512 188.56 316.064 190.784 315.168 192.672C314.272 194.56 313.008 196.016 311.376 197.04C309.776 198.064 307.872 198.576 305.664 198.576ZM304.032 192.768C305.184 192.768 306.192 192.48 307.056 191.904C307.952 191.328 308.656 190.528 309.168 189.504C309.68 188.48 309.936 187.312 309.936 186C309.936 184.688 309.68 183.52 309.168 182.496C308.688 181.472 308 180.688 307.104 180.144C306.24 179.568 305.232 179.28 304.08 179.28C302.992 179.28 302.016 179.568 301.152 180.144C300.288 180.72 299.616 181.52 299.136 182.544C298.656 183.536 298.416 184.688 298.416 186C298.416 187.312 298.656 188.48 299.136 189.504C299.616 190.528 300.272 191.328 301.104 191.904C301.968 192.48 302.944 192.768 304.032 192.768Z" fill="#24292D"/>
</svg>
