<svg width="240" height="240" viewBox="0 0 240 240" fill="none" xmlns="http://www.w3.org/2000/svg">
<path d="M156.211 79.2015L156.238 79.2044H160.559L160.651 79.2132C160.742 79.2314 160.826 79.276 160.893 79.3421C160.981 79.4303 161.029 79.5505 161.029 79.6751V80.5101C161.019 80.6234 160.968 80.7294 160.885 80.8079C160.799 80.8888 160.687 80.9348 160.569 80.9368H156.724L156.627 80.9281C156.531 80.9102 156.441 80.8673 156.366 80.804C156.266 80.7198 156.198 80.6036 156.174 80.4749L156.168 80.4447L156.159 80.4144L155.894 79.6009C155.875 79.5151 155.888 79.4249 155.933 79.349C155.974 79.2788 156.04 79.2259 156.116 79.1986C156.148 79.197 156.18 79.1977 156.211 79.2015Z" fill="#08B4C4"/>
<path d="M174.502 79.1488L174.583 79.1556C174.61 79.161 174.636 79.1695 174.661 79.181C174.711 79.2038 174.755 79.2374 174.789 79.2796C174.824 79.3219 174.847 79.372 174.859 79.4251C174.871 79.4769 174.871 79.5305 174.859 79.5824L174.588 80.4251L174.583 80.4388L174.579 80.4534C174.55 80.5682 174.485 80.6713 174.394 80.7464C174.303 80.8206 174.191 80.8644 174.074 80.8714L170.328 80.9359C170.204 80.9355 170.085 80.8868 169.997 80.7991C169.909 80.711 169.859 80.5908 169.859 80.4661V79.6195C169.859 79.4946 169.909 79.3747 169.997 79.2865C170.085 79.1983 170.205 79.1488 170.33 79.1488H174.502Z" fill="#08B4C4"/>
<path d="M175.146 61.9232L175.235 61.9281C175.445 61.95 175.642 62.0436 175.792 62.1937C175.942 62.3436 176.035 62.5404 176.057 62.7493L176.062 62.8402V74.5081C176.061 74.8395 175.921 75.1456 175.56 75.4417C175.182 75.7504 174.577 76.0356 173.694 76.2718C171.931 76.7435 169.223 76.9837 165.5 76.9837C161.744 76.9837 159.011 76.7473 157.229 76.2777C156.338 76.0424 155.724 75.7584 155.343 75.4486C154.978 75.1517 154.837 74.8435 154.837 74.5081V62.8431C154.84 62.6005 154.937 62.3683 155.108 62.1966C155.259 62.0464 155.456 61.9523 155.665 61.929L155.756 61.9232H175.146Z" fill="#08B4C4"/>
<path d="M171.458 59.0052C171.505 59.0052 171.553 59.0144 171.597 59.0325C171.64 59.0508 171.68 59.0781 171.713 59.1116C171.746 59.1452 171.772 59.1851 171.79 59.2288C171.808 59.2726 171.818 59.3203 171.817 59.3675L171.816 60.0589L171.817 60.0648C171.818 60.112 171.808 60.1587 171.79 60.2025C171.772 60.2463 171.746 60.287 171.713 60.3206C171.68 60.3541 171.64 60.3816 171.597 60.3997C171.553 60.4178 171.505 60.4271 171.458 60.4271H159.468L159.396 60.4202C159.325 60.4061 159.259 60.3713 159.207 60.3197C159.138 60.2508 159.1 60.1563 159.1 60.0589V59.3265L159.095 59.3021C159.109 59.2198 159.152 59.1443 159.216 59.0902C159.28 59.0354 159.363 59.0052 159.447 59.0052H171.458Z" fill="#08B4C4"/>
<path fill-rule="evenodd" clip-rule="evenodd" d="M182.095 50.9993C186.673 50.9994 189.276 55.5071 189.965 56.888C192.29 61.5766 193.5 66.7517 193.5 71.9993C193.5 77.247 192.29 82.4221 189.965 87.1107C189.277 88.4922 186.677 92.9993 182.095 92.9993H148.908C144.323 92.999 141.724 88.4925 141.036 87.1107C138.711 82.4221 137.5 77.2471 137.5 71.9993C137.5 66.7515 138.711 61.5758 141.036 56.887C141.729 55.5056 144.33 50.9997 148.908 50.9993H182.095ZM155.339 57.4993C154.847 57.5047 154.376 57.6963 154.02 58.0345C153.663 58.3727 153.446 58.8331 153.415 59.3236V59.3314L153.143 64.973C153.142 64.9753 153.141 64.9782 153.14 64.9798C153.138 64.9814 153.135 64.9827 153.133 64.9827H151.777C151.687 64.9807 151.597 64.9918 151.511 65.0159L151.418 65.0472C151.327 65.0833 151.243 65.1332 151.169 65.1956L151.098 65.262C151.03 65.3324 150.974 65.4137 150.933 65.5013L150.896 65.5911C150.866 65.6734 150.85 65.7594 150.846 65.846V69.9974C150.843 70.0995 150.86 70.202 150.897 70.2972C150.935 70.3923 150.992 70.4787 151.063 70.5521C151.137 70.6306 151.227 70.6925 151.327 70.7318C151.419 70.7678 151.518 70.784 151.616 70.7806H153.068L153.073 70.7845L153.076 70.7913V82.2074C153.076 82.6916 153.269 83.1569 153.611 83.4993C153.954 83.8413 154.418 84.0343 154.901 84.0345H155.297V86.679H158.837V84.0345H172.089V86.679H175.638V83.8558C175.65 83.8495 175.664 83.8455 175.678 83.845C175.91 83.8569 176.142 83.8211 176.359 83.7376C176.592 83.6482 176.802 83.5087 176.974 83.3275C177.145 83.1463 177.273 82.9281 177.349 82.6908C177.419 82.4706 177.441 82.2386 177.417 82.0091V70.7327C177.417 70.7305 177.418 70.7285 177.42 70.7269C177.422 70.7253 177.424 70.7241 177.426 70.724H179.299C179.401 70.724 179.503 70.7041 179.597 70.6644C179.691 70.6246 179.776 70.5657 179.847 70.4925C179.918 70.4192 179.974 70.3319 180.011 70.2366C180.046 70.1462 180.064 70.0494 180.062 69.9525V65.7513L180.058 65.721C180.038 65.5732 179.983 65.4341 179.887 65.3187C179.793 65.2054 179.679 65.137 179.578 65.097C179.49 65.0624 179.401 65.0458 179.326 65.0374L179.158 65.0296H177.614V64.4222L177.351 59.3294L177.35 59.3187L177.327 59.1351C177.255 58.7136 177.047 58.3252 176.732 58.0306C176.418 57.7361 176.016 57.5532 175.591 57.5091L175.407 57.4993H155.339Z" fill="#08B4C4"/>
<path fill-rule="evenodd" clip-rule="evenodd" d="M155.339 57.4993C154.847 57.5047 154.376 57.6963 154.02 58.0345C153.663 58.3727 153.446 58.8331 153.415 59.3236V59.3314L153.143 64.973C153.142 64.9753 153.141 64.9782 153.14 64.9798C153.138 64.9814 153.135 64.9827 153.133 64.9827H151.777C151.687 64.9807 151.597 64.9918 151.511 65.0159L151.418 65.0472C151.327 65.0833 151.243 65.1332 151.169 65.1956L151.098 65.262C151.03 65.3324 150.974 65.4137 150.933 65.5013L150.896 65.5911C150.866 65.6734 150.85 65.7594 150.846 65.846V69.9974C150.843 70.0995 150.86 70.202 150.897 70.2972C150.935 70.3923 150.992 70.4787 151.063 70.5521C151.137 70.6306 151.227 70.6925 151.327 70.7318C151.419 70.7678 151.518 70.784 151.616 70.7806H153.068L153.073 70.7845L153.076 70.7913V82.2074C153.076 82.6916 153.269 83.1569 153.611 83.4993C153.954 83.8413 154.418 84.0343 154.901 84.0345H155.297V86.679H158.837V84.0345H172.089V86.679H175.638V83.8558C175.65 83.8495 175.664 83.8455 175.678 83.845C175.91 83.8569 176.142 83.8211 176.359 83.7376C176.592 83.6482 176.802 83.5087 176.974 83.3275C177.145 83.1463 177.273 82.9281 177.349 82.6908C177.419 82.4706 177.441 82.2386 177.417 82.0091V70.7327C177.417 70.7305 177.418 70.7285 177.42 70.7269C177.422 70.7253 177.424 70.7241 177.426 70.724H179.299C179.401 70.724 179.503 70.7041 179.597 70.6644C179.691 70.6246 179.776 70.5657 179.847 70.4925C179.918 70.4192 179.974 70.3319 180.011 70.2366C180.046 70.1462 180.064 70.0494 180.062 69.9525V65.7513L180.058 65.721C180.038 65.5732 179.983 65.4341 179.887 65.3187C179.793 65.2054 179.679 65.137 179.578 65.097C179.49 65.0624 179.401 65.0458 179.326 65.0374L179.158 65.0296H177.614V64.4222L177.351 59.3294L177.35 59.3187L177.327 59.1351C177.255 58.7136 177.047 58.3252 176.732 58.0306C176.418 57.7361 176.016 57.5532 175.591 57.5091L175.407 57.4993H155.339ZM156.238 79.2044L156.211 79.2015C156.18 79.1977 156.148 79.197 156.116 79.1986C156.04 79.2259 155.974 79.2788 155.933 79.349C155.888 79.4249 155.875 79.5151 155.894 79.6009L156.159 80.4144L156.168 80.4447L156.174 80.4749C156.198 80.6036 156.266 80.7198 156.366 80.804C156.441 80.8673 156.531 80.9102 156.627 80.9281L156.724 80.9368H160.569C160.687 80.9348 160.799 80.8888 160.885 80.8079C160.968 80.7294 161.019 80.6234 161.029 80.5101V79.6751C161.029 79.5505 160.981 79.4303 160.893 79.3421C160.826 79.276 160.742 79.2314 160.651 79.2132L160.559 79.2044H156.238ZM174.583 79.1556L174.502 79.1488H170.33C170.205 79.1488 170.085 79.1983 169.997 79.2865C169.909 79.3747 169.859 79.4946 169.859 79.6195V80.4661C169.859 80.5908 169.909 80.711 169.997 80.7991C170.085 80.8868 170.204 80.9355 170.328 80.9359L174.074 80.8714C174.191 80.8644 174.303 80.8206 174.394 80.7464C174.485 80.6713 174.55 80.5682 174.579 80.4534L174.583 80.4388L174.588 80.4251L174.859 79.5824C174.871 79.5305 174.871 79.4769 174.859 79.4251C174.847 79.372 174.824 79.3219 174.789 79.2796C174.755 79.2374 174.711 79.2038 174.661 79.181C174.636 79.1695 174.61 79.161 174.583 79.1556ZM175.235 61.9281L175.146 61.9232H155.756L155.665 61.929C155.456 61.9523 155.259 62.0464 155.108 62.1966C154.937 62.3683 154.84 62.6005 154.837 62.8431V74.5081C154.837 74.8435 154.978 75.1517 155.343 75.4486C155.724 75.7584 156.338 76.0424 157.229 76.2777C159.011 76.7473 161.744 76.9837 165.5 76.9837C169.223 76.9837 171.931 76.7435 173.694 76.2718C174.577 76.0356 175.182 75.7504 175.56 75.4417C175.921 75.1456 176.061 74.8395 176.062 74.5081V62.8402L176.057 62.7493C176.035 62.5404 175.942 62.3436 175.792 62.1937C175.642 62.0436 175.445 61.95 175.235 61.9281ZM171.597 59.0325C171.553 59.0144 171.505 59.0052 171.458 59.0052H159.447C159.363 59.0052 159.28 59.0354 159.216 59.0902C159.152 59.1443 159.109 59.2198 159.095 59.3021L159.1 59.3265V60.0589C159.1 60.1563 159.138 60.2508 159.207 60.3197C159.259 60.3713 159.325 60.4061 159.396 60.4202L159.468 60.4271H171.458C171.505 60.4271 171.553 60.4178 171.597 60.3997C171.64 60.3816 171.68 60.3541 171.713 60.3206C171.746 60.287 171.772 60.2463 171.79 60.2025C171.808 60.1587 171.818 60.112 171.817 60.0648L171.816 60.0589L171.817 59.3675C171.818 59.3203 171.808 59.2726 171.79 59.2288C171.772 59.1851 171.746 59.1452 171.713 59.1116C171.68 59.0781 171.64 59.0508 171.597 59.0325Z" fill="white"/>
<path d="M79.3613 125.601C79.6186 125.489 79.9036 125.456 80.1797 125.507C80.4557 125.557 80.7112 125.688 80.9121 125.884C81.1128 126.079 81.2511 126.331 81.3086 126.605C81.366 126.88 81.3401 127.167 81.2344 127.427C81.1286 127.687 80.9477 127.909 80.7148 128.066C80.4925 128.216 80.2322 128.298 79.9648 128.305C79.9408 128.301 79.9161 128.297 79.8916 128.297C79.5307 128.288 79.1866 128.141 78.9307 127.887C78.7068 127.664 78.5646 127.373 78.5254 127.062L78.5156 126.929C78.509 126.649 78.5849 126.372 78.7354 126.136C78.8861 125.899 79.1044 125.714 79.3613 125.601Z" fill="#EA4444"/>
<path d="M66.8545 125.496C67.1303 125.446 67.4149 125.48 67.6719 125.592C67.929 125.704 68.1471 125.89 68.2979 126.127C68.4486 126.364 68.5255 126.64 68.5186 126.921C68.5093 127.289 68.3565 127.639 68.0928 127.896C67.829 128.153 67.4747 128.297 67.1064 128.297C66.8262 128.297 66.5519 128.214 66.3193 128.057C66.0865 127.901 65.9056 127.677 65.7998 127.417C65.6942 127.157 65.6682 126.871 65.7256 126.597C65.783 126.322 65.9205 126.071 66.1211 125.875C66.3221 125.679 66.5783 125.546 66.8545 125.496Z" fill="#EA4444"/>
<path d="M74.1582 107.558C77.3684 107.63 79.2775 108.23 80.4668 109.028C81.7189 109.869 82.2381 110.975 82.6152 112.115C83.4947 114.753 83.9558 117.512 83.9834 120.292C83.9835 120.303 83.9844 120.315 83.9854 120.326C84.0659 121.308 83.7727 122.284 83.167 123.06C82.9168 123.29 82.6247 123.47 82.3057 123.587C81.9771 123.707 81.6277 123.76 81.2783 123.742L81.2539 123.741H65.7422C65.0771 123.741 64.4125 123.586 63.915 123.123C63.4245 122.666 63.0135 121.831 63.0127 120.292C63.0403 117.512 63.5024 114.753 64.3818 112.115L64.5322 111.689C64.9046 110.701 65.4385 109.764 66.5332 109.028C67.8006 108.176 69.8857 107.552 73.498 107.552L74.1582 107.558Z" fill="#EA4444"/>
<path fill-rule="evenodd" clip-rule="evenodd" d="M90.0947 98.9998C94.6735 98.9999 97.276 103.508 97.9648 104.889C100.29 109.577 101.5 114.752 101.5 120C101.5 125.247 100.29 130.423 97.9648 135.111C97.2773 136.493 94.6774 141 90.0947 141H56.9082C52.3227 141 49.7239 136.493 49.0361 135.111C46.7113 130.423 45.5001 125.248 45.5 120C45.5 114.752 46.7113 109.576 49.0361 104.888C49.7286 103.506 52.3302 99.0002 56.9082 98.9998H90.0947ZM73.4961 105.5H73.4912C72.6647 105.5 70.9893 105.5 69.2393 105.772C67.5051 106.042 65.5949 106.594 64.3877 107.77L64.3828 107.774C63.8362 108.321 63.3186 109.225 62.8506 110.305C62.3772 111.397 61.9356 112.716 61.5566 114.132C60.7995 116.961 60.2832 120.222 60.2832 122.913V122.931V122.935C60.2832 124.183 60.2832 125.912 60.5752 127.333C60.7218 128.046 60.9508 128.732 61.3262 129.248C61.7158 129.783 62.2717 130.141 63.0127 130.141H64.8164L64.8125 130.149L62.9014 133.999C62.829 134.145 62.8371 134.318 62.9229 134.457C63.0087 134.595 63.1606 134.678 63.3232 134.679H66.7305C66.9543 134.678 67.1471 134.521 67.1914 134.302L68.0293 130.122L68.0303 130.114H78.9756L79.8145 134.301C79.8586 134.52 80.0512 134.679 80.2754 134.679H83.6826C83.8453 134.678 83.9972 134.595 84.083 134.457C84.1688 134.318 84.1761 134.145 84.1035 133.999L82.1748 130.121C82.1737 130.119 82.172 130.116 82.1709 130.114H83.9746C84.7158 130.114 85.2715 129.754 85.6611 129.219C86.0363 128.703 86.2655 128.019 86.4121 127.305C86.7041 125.884 86.7041 124.156 86.7041 122.908V122.904V122.885C86.7041 120.207 86.1852 116.953 85.4258 114.128C85.0456 112.714 84.6021 111.396 84.1279 110.305C83.659 109.225 83.1404 108.321 82.5938 107.774C81.4259 106.593 79.5152 106.042 77.7793 105.772C76.0233 105.5 74.3312 105.5 73.5048 105.5H73.5H73.4961Z" fill="#EA4444"/>
<path fill-rule="evenodd" clip-rule="evenodd" d="M73.4961 105.5H73.4912C72.6647 105.5 70.9893 105.5 69.2393 105.772C67.5051 106.042 65.5949 106.594 64.3877 107.77L64.3828 107.774C63.8362 108.321 63.3186 109.225 62.8506 110.305C62.3772 111.397 61.9356 112.716 61.5566 114.132C60.7995 116.961 60.2832 120.222 60.2832 122.913V122.931V122.935C60.2832 124.183 60.2832 125.912 60.5752 127.333C60.7218 128.046 60.9508 128.732 61.3262 129.248C61.7158 129.783 62.2717 130.141 63.0127 130.141H64.8164L64.8125 130.149L62.9014 133.999C62.829 134.145 62.8371 134.318 62.9229 134.457C63.0087 134.595 63.1606 134.678 63.3232 134.679H66.7305C66.9543 134.678 67.1471 134.521 67.1914 134.302L68.0293 130.122L68.0303 130.114H78.9756L79.8145 134.301C79.8586 134.52 80.0512 134.679 80.2754 134.679H83.6826C83.8453 134.678 83.9972 134.595 84.083 134.457C84.1688 134.318 84.1761 134.145 84.1035 133.999L82.1748 130.121C82.1737 130.119 82.172 130.116 82.1709 130.114H83.9746C84.7158 130.114 85.2715 129.754 85.6611 129.219C86.0363 128.703 86.2655 128.019 86.4121 127.305C86.7041 125.884 86.7041 124.156 86.7041 122.908V122.904V122.885C86.7041 120.207 86.1852 116.953 85.4258 114.128C85.0456 112.714 84.6021 111.396 84.1279 110.305C83.659 109.225 83.1404 108.321 82.5938 107.774C81.4259 106.593 79.5152 106.042 77.7793 105.772C76.0233 105.5 74.3312 105.5 73.5048 105.5H73.5H73.4961ZM80.1797 125.507C79.9036 125.456 79.6186 125.489 79.3613 125.601C79.1044 125.714 78.8861 125.899 78.7354 126.136C78.5849 126.372 78.509 126.649 78.5156 126.929L78.5254 127.062C78.5646 127.373 78.7068 127.664 78.9307 127.887C79.1866 128.141 79.5307 128.288 79.8916 128.297C79.9161 128.297 79.9408 128.301 79.9648 128.305C80.2322 128.298 80.4925 128.216 80.7148 128.066C80.9477 127.909 81.1286 127.687 81.2344 127.427C81.3401 127.167 81.366 126.88 81.3086 126.605C81.2511 126.331 81.1128 126.079 80.9121 125.884C80.7112 125.688 80.4557 125.557 80.1797 125.507ZM67.6719 125.592C67.4149 125.48 67.1303 125.446 66.8545 125.496C66.5783 125.546 66.3221 125.679 66.1211 125.875C65.9205 126.071 65.783 126.322 65.7256 126.597C65.6682 126.871 65.6942 127.157 65.7998 127.417C65.9056 127.677 66.0865 127.901 66.3193 128.057C66.5519 128.214 66.8262 128.297 67.1064 128.297C67.4747 128.297 67.829 128.153 68.0928 127.896C68.3565 127.639 68.5093 127.289 68.5186 126.921C68.5255 126.64 68.4486 126.364 68.2979 126.127C68.1471 125.89 67.929 125.704 67.6719 125.592ZM80.4668 109.028C79.2775 108.23 77.3684 107.63 74.1582 107.558L73.498 107.552C69.8857 107.552 67.8006 108.176 66.5332 109.028C65.4385 109.764 64.9046 110.701 64.5322 111.689L64.3818 112.115C63.5024 114.753 63.0403 117.512 63.0127 120.292C63.0135 121.831 63.4245 122.666 63.915 123.123C64.4125 123.586 65.0771 123.741 65.7422 123.741H81.2539L81.2783 123.742C81.6277 123.76 81.9771 123.707 82.3057 123.587C82.6247 123.47 82.9168 123.29 83.167 123.06C83.7727 122.284 84.0659 121.308 83.9854 120.326C83.9844 120.315 83.9835 120.303 83.9834 120.292C83.9558 117.512 83.4947 114.753 82.6152 112.115C82.2381 110.975 81.7189 109.869 80.4668 109.028Z" fill="white"/>
<path d="M49.236 86.9993V53.3993H55.572V82.5353L55.236 86.9993H49.236ZM62.82 87.5753C60.804 87.5753 59.092 87.0633 57.684 86.0393C56.308 85.0153 55.252 83.5593 54.516 81.6713C53.78 79.7833 53.412 77.5593 53.412 74.9993C53.412 72.4073 53.78 70.1833 54.516 68.3273C55.252 66.4393 56.308 64.9833 57.684 63.9593C59.092 62.9353 60.804 62.4233 62.82 62.4233C65.028 62.4233 66.932 62.9353 68.532 63.9593C70.164 64.9833 71.428 66.4393 72.324 68.3273C73.22 70.1833 73.668 72.4073 73.668 74.9993C73.668 77.5593 73.22 79.7833 72.324 81.6713C71.428 83.5593 70.164 85.0153 68.532 86.0393C66.932 87.0633 65.028 87.5753 62.82 87.5753ZM61.188 81.7673C62.34 81.7673 63.348 81.4793 64.212 80.9033C65.108 80.3273 65.812 79.5273 66.324 78.5033C66.836 77.4793 67.092 76.3113 67.092 74.9993C67.092 73.6873 66.836 72.5193 66.324 71.4953C65.844 70.4713 65.156 69.6873 64.26 69.1433C63.396 68.5673 62.388 68.2793 61.236 68.2793C60.148 68.2793 59.172 68.5673 58.308 69.1433C57.444 69.7193 56.772 70.5193 56.292 71.5433C55.812 72.5353 55.572 73.6873 55.572 74.9993C55.572 76.3113 55.812 77.4793 56.292 78.5033C56.772 79.5273 57.428 80.3273 58.26 80.9033C59.124 81.4793 60.1 81.7673 61.188 81.7673Z" fill="#24292D"/>
<path d="M93.6698 86.9993L93.2858 82.5833V62.9993H99.6218V86.9993H93.6698ZM77.3978 75.2873V62.9993H83.7337V75.2873H77.3978ZM83.7337 75.2873C83.7337 76.8873 83.9097 78.1513 84.2617 79.0793C84.6457 79.9753 85.1737 80.6313 85.8457 81.0473C86.5497 81.4313 87.3338 81.6233 88.1978 81.6233C89.8618 81.6553 91.1258 81.1593 91.9897 80.1353C92.8537 79.0793 93.2858 77.5593 93.2858 75.5753H95.4458C95.4458 78.1353 95.0618 80.3113 94.2938 82.1033C93.5258 83.8633 92.4698 85.2233 91.1258 86.1833C89.7817 87.1113 88.1978 87.5753 86.3737 87.5753C84.4537 87.5753 82.8218 87.1913 81.4777 86.4233C80.1337 85.6553 79.1097 84.4713 78.4058 82.8713C77.7337 81.2393 77.3978 79.1433 77.3978 76.5833V75.2873H83.7337Z" fill="#24292D"/>
<path d="M114.087 87.5753C112.551 87.5753 111.111 87.3513 109.767 86.9033C108.423 86.4233 107.239 85.7513 106.215 84.8873C105.191 83.9913 104.391 82.9033 103.815 81.6233L109.239 79.1273C109.719 79.8953 110.375 80.5673 111.207 81.1433C112.039 81.6873 112.999 81.9593 114.087 81.9593C115.143 81.9593 115.959 81.8153 116.535 81.5273C117.111 81.2073 117.399 80.7593 117.399 80.1833C117.399 79.6073 117.159 79.1913 116.679 78.9353C116.231 78.6473 115.607 78.4073 114.807 78.2153L112.599 77.6393C110.295 77.0313 108.471 76.0713 107.127 74.7593C105.815 73.4153 105.159 71.8793 105.159 70.1513C105.159 67.6873 105.943 65.7833 107.511 64.4393C109.111 63.0953 111.367 62.4233 114.279 62.4233C115.783 62.4233 117.175 62.6473 118.455 63.0953C119.767 63.5433 120.887 64.1673 121.815 64.9673C122.743 65.7673 123.383 66.6953 123.735 67.7513L118.503 70.1513C118.279 69.5113 117.735 68.9993 116.871 68.6153C116.007 68.1993 115.143 67.9913 114.279 67.9913C113.415 67.9913 112.743 68.1833 112.263 68.5673C111.815 68.9193 111.591 69.4153 111.591 70.0553C111.591 70.4713 111.815 70.8233 112.263 71.1113C112.711 71.3673 113.351 71.5913 114.183 71.7833L117.303 72.5513C118.871 72.9353 120.119 73.5593 121.047 74.4233C122.007 75.2553 122.695 76.1993 123.111 77.2553C123.559 78.2793 123.783 79.2873 123.783 80.2793C123.783 81.7193 123.351 82.9993 122.487 84.1193C121.655 85.2073 120.503 86.0553 119.031 86.6633C117.591 87.2713 115.943 87.5753 114.087 87.5753Z" fill="#24292D"/>
<path d="M116.236 134V110H122.188L122.476 113.12C123.212 111.904 124.156 110.992 125.308 110.384C126.46 109.744 127.74 109.424 129.148 109.424C131.1 109.424 132.732 109.84 134.044 110.672C135.388 111.504 136.364 112.784 136.972 114.512C137.676 112.88 138.668 111.632 139.948 110.768C141.228 109.872 142.716 109.424 144.412 109.424C147.228 109.424 149.372 110.32 150.844 112.112C152.316 113.872 153.052 116.592 153.052 120.272V134H146.716V121.712C146.716 120.08 146.54 118.816 146.188 117.92C145.836 117.024 145.356 116.384 144.748 116C144.14 115.584 143.42 115.376 142.588 115.376C141.052 115.344 139.868 115.84 139.036 116.864C138.204 117.888 137.788 119.408 137.788 121.424V134H131.452V121.712C131.452 120.08 131.276 118.816 130.924 117.92C130.604 117.024 130.124 116.384 129.484 116C128.876 115.584 128.156 115.376 127.324 115.376C125.788 115.344 124.604 115.84 123.772 116.864C122.972 117.888 122.572 119.408 122.572 121.424V134H116.236Z" fill="#24292D"/>
<path d="M162.559 121.376C162.559 118.784 163.055 116.64 164.047 114.944C165.071 113.248 166.367 111.984 167.935 111.152C169.535 110.32 171.199 109.904 172.927 109.904V116.048C171.455 116.048 170.063 116.224 168.751 116.576C167.471 116.928 166.431 117.504 165.631 118.304C164.831 119.104 164.431 120.128 164.431 121.376H162.559ZM158.095 134V110H164.431V134H158.095Z" fill="#24292D"/>
<path d="M186.171 134.576C183.515 134.576 181.499 133.92 180.123 132.608C178.779 131.296 178.107 129.424 178.107 126.992V102.512H184.443V125.6C184.443 126.624 184.667 127.408 185.115 127.952C185.563 128.464 186.219 128.72 187.083 128.72C187.403 128.72 187.755 128.656 188.139 128.528C188.523 128.368 188.923 128.144 189.339 127.856L191.547 132.608C190.779 133.184 189.915 133.648 188.955 134C188.027 134.384 187.099 134.576 186.171 134.576ZM174.219 115.376V110H190.443V115.376H174.219Z" fill="#24292D"/>
<path d="M59.7 182L67.668 158H74.1L65.94 182H59.7ZM43.764 182L51.444 158H56.964L49.38 182H43.764ZM43.14 182L34.98 158H41.412L49.044 182H43.14ZM59.7 182L52.212 158H57.684L65.316 182H59.7Z" fill="#24292D"/>
<path d="M91.0601 182L90.8681 177.152V169.856C90.8681 168.416 90.7081 167.184 90.3881 166.16C90.1001 165.136 89.6201 164.352 88.9481 163.808C88.3081 163.232 87.4281 162.944 86.3081 162.944C85.2841 162.944 84.3561 163.168 83.5241 163.616C82.6921 164.064 81.9881 164.752 81.4121 165.68L75.8441 163.76C76.2921 162.736 76.9481 161.744 77.8121 160.784C78.6761 159.792 79.7961 158.992 81.1721 158.384C82.5801 157.744 84.2921 157.424 86.3081 157.424C88.7401 157.424 90.7561 157.888 92.3561 158.816C93.9881 159.744 95.1881 161.056 95.9561 162.752C96.7561 164.416 97.1401 166.4 97.1081 168.704L96.9641 182H91.0601ZM84.3401 182.576C81.4601 182.576 79.2201 181.936 77.6201 180.656C76.0521 179.376 75.2681 177.568 75.2681 175.232C75.2681 172.672 76.1161 170.752 77.8121 169.472C79.5401 168.16 81.9561 167.504 85.0601 167.504H91.1561V172.208H87.2681C85.1881 172.208 83.7481 172.464 82.9481 172.976C82.1481 173.456 81.7481 174.144 81.7481 175.04C81.7481 175.744 82.0681 176.304 82.7081 176.72C83.3481 177.104 84.2441 177.296 85.3961 177.296C86.4521 177.296 87.3801 177.056 88.1801 176.576C89.0121 176.064 89.6681 175.424 90.1481 174.656C90.6281 173.856 90.8681 173.04 90.8681 172.208H92.4041C92.4041 175.472 91.7801 178.016 90.5321 179.84C89.3161 181.664 87.2521 182.576 84.3401 182.576Z" fill="#24292D"/>
<path d="M102.158 182V148.4H108.494V182H102.158Z" fill="#24292D"/>
<path d="M120.018 175.904L116.226 171.536L128.514 158H136.05L120.018 175.904ZM113.97 182V148.4H120.306V182H113.97ZM129.33 182L121.362 170.384L125.49 166.016L136.77 182H129.33Z" fill="#24292D"/>
<path d="M179.097 160.903C178.593 160.542 177.871 160.486 177.195 160.558C176.866 160.593 176.571 160.656 176.359 160.71C176.254 160.737 176.17 160.763 176.113 160.781C176.088 160.788 176.068 160.795 176.055 160.799L176.051 160.8H176.049C174.469 161.513 173.025 162.496 171.78 163.702C171.122 164.349 170.664 165.173 170.463 166.074L170.003 168.343L170.001 168.353C169.724 169.587 169.711 170.249 169.825 170.622C169.876 170.79 169.952 170.896 170.049 170.978C170.152 171.065 170.3 171.141 170.517 171.215C170.646 171.249 170.781 171.257 170.913 171.238C171.044 171.219 171.169 171.173 171.282 171.106C171.662 170.819 171.925 170.406 172.024 169.941L172.614 166.123L172.747 166.009L175.142 163.959L174.89 165.279C174.76 165.958 174.558 166.622 174.286 167.258L174.281 167.27C174.047 167.781 173.925 168.337 173.925 168.9C173.925 169.451 174.042 169.997 174.268 170.499L180.929 180.632L180.936 180.642L181.027 180.789L181.285 181.192C181.534 181.575 181.757 181.9 181.986 182.159C182.278 182.488 182.546 182.67 182.834 182.74C182.902 182.746 182.971 182.748 183.038 182.74L183.059 182.738C183.44 182.707 183.805 182.566 184.109 182.333L184.119 182.326C184.273 182.214 184.404 182.073 184.502 181.91C184.596 181.754 184.659 181.581 184.688 181.401C184.718 180.82 184.548 180.246 184.204 179.777L184.195 179.765L184.188 179.752C184.17 179.723 184.116 179.64 184.034 179.511C183.224 178.242 179.602 172.57 178.515 171.154L178.506 171.141C178.289 170.838 178.147 170.488 178.092 170.119C178.037 169.752 178.07 169.375 178.188 169.023L178.193 169.008L178.2 168.993L178.222 168.935C178.231 168.911 178.242 168.879 178.255 168.843L178.277 168.78C178.324 168.65 178.387 168.469 178.461 168.25C178.609 167.811 178.8 167.217 178.988 166.557C179.37 165.22 179.726 163.669 179.727 162.583V162.55L179.731 162.516C179.775 162.214 179.739 161.906 179.627 161.622C179.516 161.34 179.333 161.093 179.097 160.903Z" fill="white"/>
<path d="M180.411 164.715C180.267 165.434 180.08 166.163 179.894 166.815C179.888 166.835 179.882 166.855 179.876 166.874C179.871 166.892 179.865 166.909 179.86 166.926C180.177 167.205 180.544 167.421 180.942 167.561L180.967 167.571C181.175 167.657 182.551 168.204 183.338 168.509L183.863 168.707L183.872 168.71L183.881 168.714C183.991 168.756 184.109 168.777 184.228 168.777C184.461 168.768 184.689 168.693 184.881 168.559C185.073 168.424 185.223 168.236 185.311 168.018L185.316 168.005C185.367 167.89 185.393 167.764 185.393 167.638C185.393 167.513 185.367 167.389 185.317 167.274L185.259 167.158C185.195 167.045 185.113 166.943 185.019 166.854C184.892 166.735 184.742 166.644 184.579 166.584L184.575 166.582L181.123 165.289C180.92 165.209 180.735 165.087 180.583 164.93C180.519 164.864 180.462 164.791 180.411 164.715Z" fill="white"/>
<path d="M173.019 174.711L172.983 174.891C172.796 175.771 172.358 176.58 171.722 177.22C170.76 178.313 169.859 179.46 169.024 180.653L169.023 180.654C168.844 180.908 168.77 181.224 168.819 181.532C168.869 181.839 169.037 182.115 169.286 182.301L169.316 182.325L169.343 182.351C169.352 182.36 169.362 182.368 169.372 182.375L169.405 182.393L169.528 182.442L169.596 182.533C169.792 182.629 170.007 182.68 170.226 182.679H170.239C170.484 182.684 170.726 182.626 170.941 182.51C171.156 182.394 171.338 182.223 171.468 182.016L171.477 182.002L171.487 181.989L174.16 178.317L174.166 178.308L174.174 178.298C174.843 177.468 175.348 176.519 175.667 175.503L175.914 174.718L173.802 171.504L173.019 174.711Z" fill="white"/>
<path d="M179.907 153.549C179.384 153.448 178.842 153.505 178.351 153.712C177.859 153.92 177.44 154.269 177.147 154.714C176.891 155.104 176.741 155.553 176.711 156.017L176.705 156.216C176.709 156.926 176.995 157.607 177.499 158.107C178.003 158.606 178.686 158.886 179.396 158.884C179.929 158.884 180.452 158.726 180.895 158.429C181.338 158.132 181.684 157.709 181.887 157.216C182.089 156.723 182.141 156.181 182.035 155.659C181.929 155.136 181.671 154.656 181.292 154.281C180.913 153.905 180.431 153.65 179.907 153.549Z" fill="white"/>
<path fill-rule="evenodd" clip-rule="evenodd" d="M194.095 147C198.673 147 201.276 151.508 201.965 152.889C204.29 157.578 205.5 162.753 205.5 168C205.5 173.248 204.29 178.423 201.965 183.112C201.277 184.493 198.677 189 194.095 189H160.908C156.323 189 153.724 184.493 153.036 183.112C150.711 178.423 149.5 173.248 149.5 168C149.5 162.752 150.711 157.577 153.036 152.888C153.729 151.507 156.33 147.001 160.908 147H194.095ZM177.195 160.558C177.871 160.486 178.593 160.542 179.097 160.903C179.333 161.093 179.516 161.34 179.627 161.622C179.739 161.906 179.775 162.214 179.731 162.516L179.727 162.55V162.583C179.726 163.669 179.37 165.22 178.988 166.557C178.8 167.217 178.609 167.811 178.461 168.25C178.387 168.469 178.324 168.65 178.277 168.78L178.255 168.843C178.242 168.879 178.231 168.911 178.222 168.935L178.2 168.993L178.193 169.008L178.188 169.023C178.07 169.375 178.037 169.752 178.092 170.119C178.147 170.488 178.289 170.838 178.506 171.141L178.515 171.154C179.602 172.57 183.224 178.242 184.034 179.511C184.116 179.64 184.17 179.723 184.188 179.752L184.195 179.765L184.204 179.777C184.548 180.246 184.718 180.82 184.688 181.401C184.659 181.581 184.596 181.754 184.502 181.91C184.404 182.073 184.273 182.214 184.119 182.326L184.109 182.333C183.805 182.566 183.44 182.707 183.059 182.738L183.038 182.74C182.971 182.748 182.902 182.746 182.834 182.74C182.546 182.67 182.278 182.488 181.986 182.159C181.757 181.9 181.534 181.575 181.285 181.192L181.027 180.789L180.936 180.642L180.929 180.632L174.268 170.499C174.042 169.997 173.925 169.451 173.925 168.9C173.925 168.337 174.047 167.781 174.281 167.27L174.286 167.258C174.558 166.622 174.76 165.958 174.89 165.279L175.142 163.959L172.747 166.009L172.614 166.123L172.024 169.941C171.925 170.406 171.662 170.819 171.282 171.106C171.169 171.173 171.044 171.219 170.913 171.238C170.781 171.257 170.646 171.249 170.517 171.215C170.3 171.141 170.152 171.065 170.049 170.978C169.952 170.896 169.876 170.79 169.825 170.622C169.711 170.249 169.724 169.587 170.001 168.353L170.003 168.343L170.463 166.074C170.664 165.173 171.122 164.349 171.78 163.702C173.025 162.496 174.469 161.513 176.049 160.8H176.051L176.055 160.799C176.068 160.795 176.088 160.788 176.113 160.781C176.17 160.763 176.254 160.737 176.359 160.71C176.571 160.656 176.866 160.593 177.195 160.558ZM172.983 174.891L173.019 174.711L173.802 171.504L175.914 174.718L175.667 175.503C175.348 176.519 174.843 177.468 174.174 178.298L174.166 178.308L174.16 178.317L171.487 181.989L171.477 182.002L171.468 182.016C171.338 182.223 171.156 182.394 170.941 182.51C170.726 182.626 170.484 182.684 170.239 182.679H170.226C170.007 182.68 169.792 182.629 169.596 182.533L169.528 182.442L169.405 182.393L169.372 182.375C169.362 182.368 169.352 182.36 169.343 182.351L169.316 182.325L169.286 182.301C169.037 182.115 168.869 181.839 168.819 181.532C168.77 181.224 168.844 180.908 169.023 180.654L169.024 180.653C169.859 179.46 170.76 178.313 171.722 177.22C172.358 176.58 172.796 175.771 172.983 174.891ZM179.894 166.815C180.08 166.163 180.267 165.434 180.411 164.715C180.462 164.791 180.519 164.864 180.583 164.93C180.735 165.087 180.92 165.209 181.123 165.289L184.575 166.582L184.579 166.584C184.742 166.644 184.892 166.735 185.019 166.854C185.113 166.943 185.195 167.045 185.259 167.158L185.317 167.274C185.367 167.389 185.393 167.513 185.393 167.638C185.393 167.764 185.367 167.89 185.316 168.005L185.311 168.018C185.223 168.236 185.073 168.424 184.881 168.559C184.689 168.693 184.461 168.768 184.228 168.777C184.109 168.777 183.991 168.756 183.881 168.714L183.872 168.71L183.863 168.707L183.338 168.509C182.551 168.204 181.175 167.657 180.967 167.571L180.942 167.561C180.544 167.421 180.177 167.205 179.86 166.926C179.865 166.909 179.871 166.892 179.876 166.874C179.882 166.855 179.888 166.835 179.894 166.815ZM178.351 153.712C178.842 153.505 179.384 153.448 179.907 153.549C180.431 153.65 180.913 153.905 181.292 154.281C181.671 154.656 181.929 155.136 182.035 155.659C182.141 156.181 182.089 156.723 181.887 157.216C181.684 157.709 181.338 158.132 180.895 158.429C180.452 158.726 179.929 158.884 179.396 158.884C178.686 158.886 178.003 158.606 177.499 158.107C176.995 157.607 176.709 156.926 176.705 156.216L176.711 156.017C176.741 155.553 176.891 155.104 177.147 154.714C177.44 154.269 177.859 153.92 178.351 153.712Z" fill="#FA8E0B"/>
</svg>
